<svg width="261" height="32" viewBox="0 0 261 32" fill="none" xmlns="http://www.w3.org/2000/svg">
<g clip-path="url(#clip0_777_7946)">
<path d="M46.63 7.2417H36.1101C33.1254 7.2417 31.1193 8.70959 30.0917 12.624L29.1132 16.4405L28.1346 20.257C27.156 24.2203 28.4771 25.6882 31.4618 25.6882H45.8471L47.3639 21.9695C46.2875 22.4588 45.7982 22.6545 42.9602 22.6545H36.0122C35.0826 22.6545 34.6911 22.361 34.9358 21.4802L36.208 16.4894L37.4312 11.4986C37.6758 10.6178 38.2141 10.3243 39.0948 10.3243H42.1284C43.0581 10.3243 43.4006 10.6178 43.2049 11.4986L42.3242 14.9726H38.5566L37.8226 18.0062H48.5872L49.0275 16.1958L49.9083 12.6729C50.9358 8.70959 49.6147 7.2417 46.63 7.2417Z" fill="#DA1A32"/>
<path d="M9.68807 17.7125L14.0917 11.4985L15.1682 17.7125H9.68807ZM15.6086 20.7462L16 23.0948C16.0979 23.4862 16.0489 24.0245 15.9511 24.4648C15.8532 24.8563 15.7554 25.0031 15.2171 25.6881H24.4648C24.0245 25.0031 23.682 24.1223 23.4862 23.1927L20.893 7.29053H12.5749L13.1131 8.31805L2.93578 22.3609C1.90826 23.7798 1.46789 24.318 0 25.6881H5.18654C4.99083 25.052 4.9419 25.0031 5.08868 24.367C5.18654 23.9755 5.38226 23.5841 5.62691 23.2905L7.48624 20.7462H15.6086Z" fill="#DA1A32"/>
<path d="M72.1713 10.8135C71.4862 10.5199 70.8502 10.3242 69.4801 10.3242H64.4404C63.5107 10.3242 62.9725 10.6177 62.7768 11.4985L60.2814 21.4801C60.0367 22.3609 60.4281 22.6544 61.3578 22.6544H65.3211C68.159 22.6544 68.6483 22.4587 69.7248 21.9694L68.159 25.6881H56.8563C53.8716 25.6881 52.5505 24.2691 53.5291 20.2569L55.3884 12.6728C56.4159 8.70949 58.422 7.29053 61.4067 7.29053H72.4648L72.1713 10.8135Z" fill="#DA1A32"/>
<path d="M83.5719 11.4986C83.8165 10.6179 84.3058 10.3243 85.2355 10.3243H88.2691C89.1498 10.3243 89.5413 10.6179 89.3456 11.4986L86.8502 21.4803C86.6055 22.361 86.1162 22.6546 85.1865 22.6546H82.2018C81.2722 22.6546 80.8807 22.361 81.1254 21.4803L83.5719 11.4986ZM74.3731 20.306C73.3945 24.2693 74.6667 25.7372 77.7003 25.7372H88.2202C91.2049 25.7372 93.2599 24.3182 94.2385 20.306L96.0979 12.7219C97.0764 8.75856 95.8043 7.3396 92.7706 7.3396H82.2508C79.2661 7.3396 77.2599 8.75856 76.2324 12.7219L74.3731 20.306Z" fill="#DA1A32"/>
<path d="M105.443 10.4221H105.688L102.703 22.361C102.165 24.416 102.165 24.8074 102.557 25.6882H97.8593C98.6911 24.8074 98.8379 24.4649 99.3761 22.361L102.312 10.52C102.85 8.46494 102.85 8.12243 102.459 7.2417H112.294L116.012 22.2631H115.816L118.752 10.52C119.291 8.46494 119.291 8.12243 118.899 7.2417H123.596C122.765 8.0735 122.618 8.46494 122.079 10.52L118.312 25.6393H109.26L105.443 10.4221Z" fill="#DA1A32"/>
<path d="M156.135 0.587185C156.086 0.195748 155.645 -0.0978302 155.254 0.0489588C152.269 1.02755 149.627 2.15293 147.327 3.37618C146.593 3.76761 145.908 4.11012 145.272 4.55049C137.346 9.29667 133.92 15.2661 133.578 20.0612C133.578 20.0612 133.578 20.3058 133.578 20.4526C133.578 20.4526 133.676 22.6055 133.969 23.5352L134.067 23.8288C134.459 24.9052 135.046 25.786 135.78 26.5199L132.306 30.8746C132.061 31.1193 132.012 31.5597 132.208 31.8043C132.257 31.9022 132.355 31.9511 132.404 32C132.599 32.0979 132.844 32.049 133.04 31.9022L137.199 27.6453C144.587 31.5597 158.434 18.6912 156.135 0.587185ZM139.498 25.2967L146.153 18.7401C146.349 18.5933 146.446 18.3976 146.446 18.1529C146.446 17.9083 146.349 17.7126 146.153 17.6147L144.196 16.4404L151.486 8.51379C151.731 8.22021 151.78 7.87771 151.535 7.63306C151.437 7.48627 151.291 7.43734 151.144 7.38841C150.997 7.38841 150.801 7.43734 150.654 7.5352L139.89 16.7829C139.694 16.9297 139.596 17.1254 139.596 17.3701C139.596 17.6147 139.694 17.8104 139.89 17.9083L142.043 19.2294L137.59 24.4649C137.443 24.367 137.346 24.2691 137.248 24.1224C136.709 23.4863 136.318 22.2141 136.22 21.2844C136.073 17.8594 138.765 12.7217 145.713 8.02449C146.349 7.58413 147.083 7.14376 147.817 6.70339C149.333 5.82266 150.997 4.94193 152.807 4.11012C153.199 3.9144 153.688 4.20798 153.737 4.64835C154.862 16.2936 145.125 26.2753 139.498 25.2967Z" fill="#71A341"/>
<path d="M165.823 10.7645C165.823 8.80731 167.339 7.19263 169.395 7.19263C170.618 7.19263 171.352 7.53513 172.086 8.12229L171.156 9.24767C170.618 8.80731 170.177 8.56266 169.346 8.56266C168.269 8.56266 167.388 9.54125 167.388 10.7156C167.388 11.9877 168.269 12.8685 169.443 12.8685C169.982 12.8685 170.471 12.7217 170.862 12.477V11.4984H169.346V10.1773H172.33V13.162C171.645 13.7492 170.667 14.2385 169.395 14.2385C167.291 14.2874 165.823 12.7706 165.823 10.7645Z" fill="#3B4E31"/>
<path d="M175.119 7.29053H178.251C179.131 7.29053 179.817 7.53518 180.257 7.97554C180.648 8.36698 180.844 8.90521 180.844 9.54129C180.844 10.6667 180.257 11.3517 179.376 11.6453L181.04 14.0918H179.278L177.81 11.8899H176.636V14.0918H175.119V7.29053ZM178.153 10.6177C178.887 10.6177 179.327 10.2263 179.327 9.63915C179.327 9.00307 178.887 8.66056 178.153 8.66056H176.636V10.6177H178.153Z" fill="#3B4E31"/>
<path d="M183.486 7.29053H188.673V8.61163H184.954V9.98166H188.183V11.3028H184.954V12.7217H188.673V14.0428H183.486V7.29053Z" fill="#3B4E31"/>
<path d="M191.364 7.29053H196.55V8.61163H192.881V9.98166H196.11V11.3028H192.881V12.7217H196.599V14.0428H191.364V7.29053Z" fill="#3B4E31"/>
<path d="M199.291 7.29053H200.661L203.89 11.4985V7.29053H205.358V14.1407H204.086L200.758 9.78594V14.1407H199.291V7.29053Z" fill="#3B4E31"/>
<path d="M212.404 7.29053H217.59V8.61163H213.92V9.98166H217.15V11.3028H213.92V12.7217H217.639V14.0428H212.404V7.29053Z" fill="#3B4E31"/>
<path d="M220.281 7.29053H221.651L224.881 11.4985V7.29053H226.349V14.1407H225.076L221.749 9.78594V14.1407H220.281V7.29053Z" fill="#3B4E31"/>
<path d="M229.333 7.29053H234.52V8.61163H230.85V9.98166H234.08V11.3028H230.85V12.7217H234.569V14.0428H229.333V7.29053Z" fill="#3B4E31"/>
<path d="M237.211 7.29053H240.343C241.223 7.29053 241.908 7.53518 242.349 7.97554C242.74 8.36698 242.936 8.90521 242.936 9.54129C242.936 10.6667 242.349 11.3517 241.468 11.6453L243.131 14.0918H241.37L239.902 11.8899H238.728V14.0918H237.211V7.29053ZM240.245 10.6177C240.979 10.6177 241.419 10.2263 241.419 9.63915C241.419 9.00307 240.979 8.66056 240.245 8.66056H238.728V10.6177H240.245Z" fill="#3B4E31"/>
<path d="M245.138 10.7645C245.138 8.80731 246.654 7.19263 248.709 7.19263C249.933 7.19263 250.667 7.53513 251.401 8.12229L250.471 9.24767C249.933 8.80731 249.492 8.56266 248.661 8.56266C247.584 8.56266 246.703 9.54125 246.703 10.7156C246.703 11.9877 247.584 12.8685 248.758 12.8685C249.297 12.8685 249.786 12.7217 250.177 12.477V11.4984H248.661V10.1773H251.645V13.162C250.96 13.7492 249.982 14.2385 248.709 14.2385C246.605 14.2874 245.138 12.7706 245.138 10.7645Z" fill="#3B4E31"/>
<path d="M256.049 11.4495L253.407 7.29053H255.168L256.783 10.0306L258.446 7.29053H260.159L257.517 11.4006V14.1407H256V11.4495H256.049Z" fill="#3B4E31"/>
<path d="M165.627 25.3944L166.508 24.3179C167.144 24.8072 167.78 25.1497 168.563 25.1497C169.199 25.1497 169.541 24.9051 169.541 24.5136C169.541 24.1222 169.297 23.9265 168.171 23.6329C166.801 23.2904 165.92 22.899 165.92 21.5289C165.92 20.3057 166.899 19.4739 168.318 19.4739C169.297 19.4739 170.177 19.7675 170.862 20.3546L170.08 21.48C169.492 21.0396 168.856 20.795 168.318 20.795C167.78 20.795 167.437 21.0396 167.437 21.3821C167.437 21.8225 167.731 21.9693 168.905 22.2629C170.275 22.6054 171.058 23.1436 171.058 24.3179C171.058 25.6879 170.031 26.4219 168.563 26.4219C167.535 26.4708 166.459 26.1283 165.627 25.3944Z" fill="#3B4E31"/>
<path d="M173.211 22.9969C173.211 21.0397 174.728 19.425 176.881 19.425C179.034 19.425 180.502 20.9908 180.502 22.948C180.502 24.9052 178.985 26.4709 176.832 26.4709C174.728 26.5198 173.211 24.9052 173.211 22.9969ZM178.936 22.9969C178.936 21.8226 178.055 20.844 176.881 20.844C175.706 20.844 174.826 21.8226 174.826 22.9969C174.826 24.1712 175.706 25.1498 176.881 25.1498C178.055 25.1498 178.936 24.1712 178.936 22.9969Z" fill="#3B4E31"/>
<path d="M183.095 19.5229H184.612V25.0031H188.037V26.3731H183.095V19.5229Z" fill="#3B4E31"/>
<path d="M190.092 23.4373V19.5229H191.609V23.3884C191.609 24.5138 192.147 25.1009 193.076 25.1009C194.006 25.1009 194.544 24.5627 194.544 23.4373V19.5229H196.061V23.3884C196.061 25.4434 194.887 26.471 193.076 26.471C191.266 26.471 190.092 25.4434 190.092 23.4373Z" fill="#3B4E31"/>
<path d="M200.416 20.9418H198.312V19.5718H203.988V20.9418H201.884V26.4219H200.367V20.9418H200.416Z" fill="#3B4E31"/>
<path d="M206.287 19.5229H207.804V26.3731H206.287V19.5229Z" fill="#3B4E31"/>
<path d="M210.446 22.9969C210.446 21.0397 211.963 19.425 214.116 19.425C216.269 19.425 217.737 20.9908 217.737 22.948C217.737 24.9052 216.22 26.4709 214.067 26.4709C211.963 26.5198 210.446 24.9052 210.446 22.9969ZM216.122 22.9969C216.122 21.8226 215.242 20.844 214.067 20.844C212.893 20.844 212.012 21.8226 212.012 22.9969C212.012 24.1712 212.893 25.1498 214.067 25.1498C215.242 25.1498 216.122 24.1712 216.122 22.9969Z" fill="#3B4E31"/>
<path d="M220.281 19.5229H221.651L224.881 23.7309V19.5229H226.349V26.3731H225.076L221.749 22.0184V26.3731H220.281V19.5229Z" fill="#3B4E31"/>
<path d="M228.844 25.3944L229.725 24.3179C230.361 24.8072 230.997 25.1497 231.78 25.1497C232.416 25.1497 232.758 24.9051 232.758 24.5136C232.758 24.1222 232.514 23.9265 231.388 23.6329C230.018 23.2904 229.138 22.899 229.138 21.5289C229.138 20.3057 230.116 19.4739 231.535 19.4739C232.514 19.4739 233.394 19.7675 234.08 20.3546L233.297 21.48C232.709 21.0396 232.073 20.795 231.535 20.795C230.997 20.795 230.654 21.0396 230.654 21.3821C230.654 21.8225 230.948 21.9693 232.122 22.2629C233.492 22.6054 234.275 23.1436 234.275 24.3179C234.275 25.6879 233.248 26.4219 231.78 26.4219C230.703 26.4708 229.627 26.1283 228.844 25.3944Z" fill="#3B4E31"/>
</g>
<defs>
<clipPath id="clip0_777_7946">
<rect width="260.208" height="32" fill="white"/>
</clipPath>
</defs>
</svg>
