<svg width="32" height="30" viewBox="0 0 32 30" fill="none" xmlns="http://www.w3.org/2000/svg">
<path d="M18.2341 19.6594H18.5004C18.5004 19.6594 22.8166 19.6682 22.8754 19.6594L25.6004 19.1594C25.8882 19.1067 26.1484 18.9548 26.3356 18.73C26.5229 18.5053 26.6255 18.222 26.6254 17.9294V11.1369C26.6254 10.8856 26.5496 10.6402 26.408 10.4326C26.2664 10.225 26.0656 10.0649 25.8316 9.97315L19.5254 7.5019C19.2145 7.3803 18.8769 7.34389 18.5473 7.3964C18.2176 7.44892 17.908 7.58848 17.6504 7.80065L13.0691 11.5694C12.8953 11.7117 12.7769 11.9103 12.7343 12.1308C12.6916 12.3513 12.7276 12.5798 12.8359 12.7765C12.9441 12.9733 13.1179 13.126 13.3269 13.208C13.536 13.29 13.7672 13.2963 13.9804 13.2257L19.1254 11.5344" stroke="#71A341" stroke-width="1.5" stroke-linecap="round" stroke-linejoin="round"/>
<path d="M5.375 17.1597L8.625 17.7847L13.1062 22.2659C13.2477 22.4076 13.4211 22.5132 13.6119 22.5739C13.8026 22.6346 14.0052 22.6486 14.2025 22.6147L14.8275 22.5059C15.0821 22.4621 15.3168 22.3406 15.4995 22.1579C15.6821 21.9753 15.8037 21.7405 15.8475 21.4859L16.065 20.2197L18.2012 19.8509L18.57 17.7159L20.7062 17.3472L21.0737 15.2109L17.8238 11.9609" stroke="#71A341" stroke-width="1.5" stroke-linecap="round" stroke-linejoin="round"/>
<path d="M15.4625 9.59893L13.6137 7.75143C13.439 7.57606 13.2161 7.45653 12.9733 7.40802C12.7305 7.35951 12.4787 7.38419 12.25 7.47893L8.5 9.03393L5.375 9.65893" stroke="#71A341" stroke-width="1.5" stroke-linecap="round" stroke-linejoin="round"/>
<path d="M1.625 7.78418H4.125C4.45652 7.78418 4.77446 7.91588 5.00888 8.1503C5.2433 8.38472 5.375 8.70266 5.375 9.03418V17.7842C5.375 18.1157 5.2433 18.4336 5.00888 18.6681C4.77446 18.9025 4.45652 19.0342 4.125 19.0342H1.625V7.78418Z" stroke="#71A341" stroke-width="1.5" stroke-linecap="round" stroke-linejoin="round"/>
<path d="M27.875 9.03418H30.375V20.2842H27.875C27.5435 20.2842 27.2255 20.1525 26.9911 19.9181C26.7567 19.6836 26.625 19.3657 26.625 19.0342V10.2842C26.625 9.95266 26.7567 9.63472 26.9911 9.4003C27.2255 9.16588 27.5435 9.03418 27.875 9.03418Z" stroke="#71A341" stroke-width="1.5" stroke-linecap="round" stroke-linejoin="round"/>
</svg>
