<svg width="32" height="32" viewBox="0 0 32 32" fill="none" xmlns="http://www.w3.org/2000/svg">
<path d="M30.375 2.87512C30.375 2.5436 30.2433 2.22566 30.0089 1.99124C29.7745 1.75682 29.4565 1.62512 29.125 1.62512H6.625C6.29348 1.62512 5.97554 1.75682 5.74112 1.99124C5.5067 2.22566 5.375 2.5436 5.375 2.87512V25.3751C5.375 25.7066 5.5067 26.0246 5.74112 26.259C5.97554 26.4934 6.29348 26.6251 6.625 26.6251H29.125C29.4565 26.6251 29.7745 26.4934 30.0089 26.259C30.2433 26.0246 30.375 25.7066 30.375 25.3751V2.87512Z" stroke="#71A341" stroke-width="1.5" stroke-linecap="round" stroke-linejoin="round"/>
<path d="M10.3691 6.62134H25.3691" stroke="#71A341" stroke-width="1.5" stroke-linecap="round" stroke-linejoin="round"/>
<path d="M10.3691 11.6213H25.3691" stroke="#71A341" stroke-width="1.5" stroke-linecap="round" stroke-linejoin="round"/>
<path d="M10.3691 16.6213H25.3691" stroke="#71A341" stroke-width="1.5" stroke-linecap="round" stroke-linejoin="round"/>
<path d="M10.3691 21.6213H17.2491" stroke="#71A341" stroke-width="1.5" stroke-linecap="round" stroke-linejoin="round"/>
<path d="M5.375 6.62512H2.875C2.54348 6.62512 2.22554 6.75682 1.99112 6.99124C1.7567 7.22566 1.625 7.5436 1.625 7.87512V29.1251C1.625 29.4566 1.7567 29.7746 1.99112 30.009C2.22554 30.2434 2.54348 30.3751 2.875 30.3751H24.125C24.4565 30.3751 24.7745 30.2434 25.0089 30.009C25.2433 29.7746 25.375 29.4566 25.375 29.1251V26.6251" stroke="#71A341" stroke-width="1.5" stroke-linecap="round" stroke-linejoin="round"/>
</svg>
