<svg width="32" height="32" viewBox="0 0 32 32" fill="none" xmlns="http://www.w3.org/2000/svg">
<path d="M12.875 13.5001C12.875 13.6659 12.8092 13.8249 12.6919 13.9421C12.5747 14.0593 12.4158 14.1251 12.25 14.1251H6C5.83424 14.1251 5.67527 14.0593 5.55806 13.9421C5.44085 13.8249 5.375 13.6659 5.375 13.5001V7.25012C5.375 7.08436 5.44085 6.92539 5.55806 6.80818C5.67527 6.69097 5.83424 6.62512 6 6.62512H12.25C12.4158 6.62512 12.5747 6.69097 12.6919 6.80818C12.8092 6.92539 12.875 7.08436 12.875 7.25012V13.5001Z" stroke="#71A341" stroke-width="1.5" stroke-linecap="round" stroke-linejoin="round"/>
<path d="M15.375 6.62512H19.125" stroke="#71A341" stroke-width="1.5" stroke-linecap="round" stroke-linejoin="round"/>
<path d="M15.375 10.3751H19.125" stroke="#71A341" stroke-width="1.5" stroke-linecap="round" stroke-linejoin="round"/>
<path d="M15.375 14.1251H19.125" stroke="#71A341" stroke-width="1.5" stroke-linecap="round" stroke-linejoin="round"/>
<path d="M5.375 17.8751H19.125" stroke="#71A341" stroke-width="1.5" stroke-linecap="round" stroke-linejoin="round"/>
<path d="M5.375 21.6251H19.125" stroke="#71A341" stroke-width="1.5" stroke-linecap="round" stroke-linejoin="round"/>
<path d="M5.375 25.3751H19.125" stroke="#71A341" stroke-width="1.5" stroke-linecap="round" stroke-linejoin="round"/>
<path d="M26.625 30.3751H5.375C4.38044 30.3751 3.42661 29.98 2.72335 29.2768C2.02009 28.5735 1.625 27.6197 1.625 26.6251V2.87512C1.625 2.5436 1.7567 2.22566 1.99112 1.99124C2.22554 1.75682 2.54348 1.62512 2.875 1.62512H21.625C21.7892 1.62512 21.9517 1.65745 22.1034 1.72027C22.255 1.78309 22.3928 1.87517 22.5089 1.99124C22.625 2.10731 22.717 2.24511 22.7798 2.39677C22.8427 2.54842 22.875 2.71097 22.875 2.87512V26.6251C22.875 27.6197 23.2701 28.5735 23.9733 29.2768C24.6766 29.98 25.6304 30.3751 26.625 30.3751ZM26.625 30.3751C27.6196 30.3751 28.5734 29.98 29.2767 29.2768C29.9799 28.5735 30.375 27.6197 30.375 26.6251V5.37512" stroke="#71A341" stroke-width="1.5" stroke-linecap="round" stroke-linejoin="round"/>
<path d="M26.625 5.37512V27.2501" stroke="#71A341" stroke-width="1.5" stroke-linecap="round" stroke-linejoin="round"/>
</svg>
