<svg width="30" height="30" viewBox="0 0 30 30" fill="none" xmlns="http://www.w3.org/2000/svg">
<path d="M17.1875 28.4375H25.9375V3.4375C25.9375 2.77446 25.6741 2.13857 25.2053 1.66973C24.7364 1.20089 24.1005 0.9375 23.4375 0.9375H15.9375C15.2745 0.9375 14.6386 1.20089 14.1697 1.66973C13.7009 2.13857 13.4375 2.77446 13.4375 3.4375V10.9375" stroke="#71A341" stroke-width="1.5" stroke-linecap="round" stroke-linejoin="round"/>
<path d="M20.07 5.3125L18.3337 8.4375H20.9375L19.2012 11.5625" stroke="#71A341" stroke-width="1.5" stroke-linecap="round" stroke-linejoin="round"/>
<path d="M11.0938 16.5625V14.6875H6.40625V16.5625H5.625C5.2171 16.5562 4.82337 16.712 4.53037 16.9959C4.23737 17.2798 4.06908 17.6684 4.0625 18.0763V27.5487C4.06908 27.9566 4.23737 28.3452 4.53037 28.6291C4.82337 28.913 5.2171 29.0688 5.625 29.0625H11.875C12.2829 29.0688 12.6766 28.913 12.9696 28.6291C13.2626 28.3452 13.4309 27.9566 13.4375 27.5487V18.0763C13.4309 17.6684 13.2626 17.2798 12.9696 16.9959C12.6766 16.712 12.2829 16.5562 11.875 16.5625H11.0938Z" stroke="#71A341" stroke-width="1.5" stroke-linecap="round" stroke-linejoin="round"/>
<path d="M4.0625 20.4238H13.4375" stroke="#71A341" stroke-width="1.5" stroke-linecap="round" stroke-linejoin="round"/>
</svg>
