<svg width="32" height="32" viewBox="0 0 32 32" fill="none" xmlns="http://www.w3.org/2000/svg">
<path d="M7.875 9.12512C10.2875 9.12512 12.25 7.80012 12.25 5.37512C12.25 2.95012 10.2875 1.62512 7.875 1.62512H4.75C4.58424 1.62512 4.42527 1.69097 4.30806 1.80818C4.19085 1.92539 4.125 2.08436 4.125 2.25012V8.50012C4.125 8.66588 4.19085 8.82485 4.30806 8.94206C4.42527 9.05927 4.58424 9.12512 4.75 9.12512H7.875Z" stroke="#71A341" stroke-width="1.5" stroke-linecap="round" stroke-linejoin="round"/>
<path d="M22.5 24.1251H9.125C7.63316 24.1251 6.20242 23.5325 5.14752 22.4776C4.09263 21.4227 3.5 19.992 3.5 18.5001C3.5 17.0083 4.09263 15.5775 5.14752 14.5226C6.20242 13.4678 7.63316 12.8751 9.125 12.8751H24.75C25.7446 12.8751 26.6984 12.48 27.4017 11.7768C28.1049 11.0735 28.5 10.1197 28.5 9.12512C28.5 8.13056 28.1049 7.17673 27.4017 6.47347C26.6984 5.77021 25.7446 5.37512 24.75 5.37512H12.25" stroke="#71A341" stroke-width="1.5" stroke-linecap="round" stroke-linejoin="round"/>
<path d="M4.125 4.12524H1.625" stroke="#71A341" stroke-width="1.5" stroke-linecap="round" stroke-linejoin="round"/>
<path d="M4.125 6.62512H1.625" stroke="#71A341" stroke-width="1.5" stroke-linecap="round" stroke-linejoin="round"/>
<path d="M11.625 24.1127C11.625 28.6877 15 30.3627 18.325 30.3627C24.35 30.3627 29.7 27.2377 30.375 22.5502C25.0125 21.7752 22.3375 17.8627 18.325 17.8627C15 17.8752 11.625 19.5252 11.625 24.1127Z" stroke="#71A341" stroke-width="1.5" stroke-linecap="round" stroke-linejoin="round"/>
<path d="M16.2116 26.0001C15.9456 25.7655 15.7326 25.477 15.5866 25.1537C15.4407 24.8304 15.3652 24.4798 15.3652 24.1251C15.3652 23.7704 15.4407 23.4198 15.5866 23.0965C15.7326 22.7733 15.9456 22.4847 16.2116 22.2501" stroke="#71A341" stroke-width="1.5" stroke-linecap="round" stroke-linejoin="round"/>
<path d="M19.7504 25.7877C19.3462 25.3307 19.123 24.7416 19.123 24.1315C19.123 23.5213 19.3462 22.9323 19.7504 22.4752" stroke="#71A341" stroke-width="1.5" stroke-linecap="round" stroke-linejoin="round"/>
<path d="M6.625 1.62512V9.12512" stroke="#71A341" stroke-width="1.5" stroke-linecap="round" stroke-linejoin="round"/>
</svg>
