<svg width="30" height="30" viewBox="0 0 30 30" fill="none" xmlns="http://www.w3.org/2000/svg">
<path d="M12.0049 25.1855H17.9947" stroke="#71A341" stroke-width="1.24875" stroke-linecap="round" stroke-linejoin="round"/>
<path d="M12.0049 27.5811H17.9947" stroke="#71A341" stroke-width="1.24875" stroke-linecap="round" stroke-linejoin="round"/>
<path d="M15 27.5811V28.779" stroke="#71A341" stroke-width="1.24875" stroke-linecap="round" stroke-linejoin="round"/>
<path d="M12.0051 22.1882C12.0051 22.3471 12.0682 22.4994 12.1805 22.6118C12.2928 22.7241 12.4452 22.7872 12.604 22.7872H17.3959C17.5548 22.7872 17.7071 22.7241 17.8195 22.6118C17.9318 22.4994 17.9949 22.3471 17.9949 22.1882V21.1831C20.1863 20.6347 22.1362 19.3802 23.5436 17.6132C24.9509 15.8462 25.7375 13.665 25.7817 11.4065C25.6999 8.62723 24.5187 5.99398 22.4972 4.08484C20.4758 2.1757 17.7794 1.14671 15 1.22376C12.2206 1.14671 9.52417 2.1757 7.50274 4.08484C5.4813 5.99398 4.30003 8.62723 4.21826 11.4065C4.2625 13.665 5.04903 15.8462 6.45639 17.6132C7.86375 19.3802 9.81367 20.6347 12.0051 21.1831V22.1882Z" stroke="#71A341" stroke-width="1.24875" stroke-linecap="round" stroke-linejoin="round"/>
<path d="M16.7968 8.41118H14.7603C14.424 8.40859 14.0959 8.51491 13.8251 8.71424C13.5543 8.91357 13.3553 9.19521 13.2578 9.51704C13.1603 9.83887 13.1696 10.1836 13.2843 10.4997C13.399 10.8158 13.613 11.0863 13.8941 11.2707L16.0984 12.7394C16.3791 12.9235 16.5927 13.1934 16.7076 13.5088C16.8224 13.8242 16.8323 14.1682 16.7357 14.4897C16.6392 14.8111 16.4414 15.0928 16.1717 15.2927C15.9021 15.4926 15.5751 15.6 15.2395 15.599H13.2029" stroke="#71A341" stroke-width="1.24875" stroke-linecap="round" stroke-linejoin="round"/>
<path d="M15.5991 8.41379V7.21582" stroke="#71A341" stroke-width="1.24875" stroke-linecap="round" stroke-linejoin="round"/>
<path d="M14.4009 16.7995V15.6016" stroke="#71A341" stroke-width="1.24875" stroke-linecap="round" stroke-linejoin="round"/>
</svg>
