<svg width="30" height="30" viewBox="0 0 30 30" fill="none" xmlns="http://www.w3.org/2000/svg">
<path d="M12.5388 14.5C11.9866 14.5 11.4461 14.6591 10.982 14.9581C10.5178 15.2571 10.1496 15.6835 9.92126 16.1862L8.29626 19.7712L4.96501 21.625C4.66609 21.7908 4.41699 22.0335 4.24357 22.3281C4.07014 22.6226 3.97871 22.9582 3.97876 23.3V25.05C3.97876 25.3018 4.02837 25.551 4.12475 25.7836C4.22112 26.0162 4.36239 26.2275 4.54046 26.4054C4.71853 26.5834 4.92992 26.7245 5.16256 26.8207C5.39519 26.917 5.64451 26.9664 5.89626 26.9663H6.90251C7.0133 27.5071 7.30741 27.993 7.73514 28.342C8.16287 28.691 8.69797 28.8816 9.25001 28.8816C9.80205 28.8816 10.3372 28.691 10.7649 28.342C11.1926 27.993 11.4867 27.5071 11.5975 26.9663H18.8813C18.992 27.5071 19.2862 27.993 19.7139 28.342C20.1416 28.691 20.6767 28.8816 21.2288 28.8816C21.7808 28.8816 22.3159 28.691 22.7436 28.342C23.1714 27.993 23.4655 27.5071 23.5763 26.9663H24.1038C24.3555 26.9664 24.6048 26.917 24.8375 26.8207C25.0701 26.7245 25.2815 26.5834 25.4596 26.4054C25.6376 26.2275 25.7789 26.0162 25.8753 25.7836C25.9717 25.551 26.0213 25.3018 26.0213 25.05V23.0675C26.0213 22.7865 25.9596 22.5089 25.8403 22.2544C25.7211 21.9999 25.5473 21.7748 25.3313 21.595L23.145 19.7737L22.2863 16.625C22.1215 16.0153 21.7606 15.4768 21.2593 15.0928C20.7579 14.7087 20.1441 14.5004 19.5125 14.5" stroke="#02B5DC" stroke-width="1.5" stroke-linecap="round" stroke-linejoin="round"/>
<path d="M12.1375 3.625V7.375C12.1375 8.36956 12.5325 9.32339 13.2358 10.0267C13.9391 10.7299 14.8929 11.125 15.8875 11.125C16.882 11.125 17.8358 10.7299 18.5391 10.0267C19.2424 9.32339 19.6375 8.36956 19.6375 7.375V3.625H12.1375Z" stroke="#02B5DC" stroke-width="1.5" stroke-linecap="round" stroke-linejoin="round"/>
<path d="M14.0125 3.62256V1.12256" stroke="#02B5DC" stroke-width="1.5" stroke-linecap="round" stroke-linejoin="round"/>
<path d="M17.7625 3.62256V1.12256" stroke="#02B5DC" stroke-width="1.5" stroke-linecap="round" stroke-linejoin="round"/>
<path d="M15.8875 11.1226V19.2476" stroke="#02B5DC" stroke-width="1.5" stroke-linecap="round" stroke-linejoin="round"/>
</svg>
