<svg width="32" height="30" viewBox="0 0 32 30" fill="none" xmlns="http://www.w3.org/2000/svg">
<path d="M21.0875 23.0889L26.625 21.2501C27.3028 21.0491 28.026 21.0613 28.6968 21.2848C29.3675 21.5084 29.9533 21.9326 30.375 22.5001C15.0888 30.1414 20.035 30.0964 6.625 25.6251L1.625 28.7501" stroke="#71A341" stroke-width="1.5" stroke-linecap="round" stroke-linejoin="round"/>
<path d="M12.875 23.7501H19.75C19.9329 23.783 20.1207 23.7753 20.3003 23.7276C20.4799 23.68 20.6468 23.5935 20.7893 23.4743C20.9318 23.3551 21.0464 23.2061 21.1251 23.0378C21.2037 22.8694 21.2445 22.6859 21.2445 22.5001C21.2445 22.3143 21.2037 22.1308 21.1251 21.9625C21.0464 21.7942 20.9318 21.6451 20.7893 21.526C20.6468 21.4068 20.4799 21.3203 20.3003 21.2726C20.1207 21.225 19.9329 21.2173 19.75 21.2501H16C14.5183 19.7214 12.5025 18.8255 10.375 18.7501H6.625L1.625 21.2501" stroke="#71A341" stroke-width="1.5" stroke-linecap="round" stroke-linejoin="round"/>
<path d="M12.6934 8.93637C12.6934 10.9749 13.5032 12.9299 14.9446 14.3714C16.3861 15.8128 18.3411 16.6226 20.3796 16.6226C22.4181 16.6226 24.3732 15.8128 25.8146 14.3714C27.2561 12.9299 28.0659 10.9749 28.0659 8.93637C28.0659 6.89785 27.2561 4.94282 25.8146 3.50137C24.3732 2.05992 22.4181 1.25012 20.3796 1.25012C18.3411 1.25012 16.3861 2.05992 14.9446 3.50137C13.5032 4.94282 12.6934 6.89785 12.6934 8.93637Z" stroke="#71A341" stroke-width="1.5" stroke-linecap="round" stroke-linejoin="round"/>
<path d="M20.3789 5.00012V3.75012" stroke="#71A341" stroke-width="1.5" stroke-linecap="round" stroke-linejoin="round"/>
<path d="M22.2497 5.00012H19.7134C19.324 5.00039 18.9467 5.13617 18.6464 5.38416C18.3461 5.63216 18.1415 5.97691 18.0676 6.3593C17.9937 6.74168 18.0551 7.13787 18.2414 7.4799C18.4277 7.82193 18.7271 8.0885 19.0884 8.23387L21.6684 9.26637C22.0298 9.41175 22.3292 9.67831 22.5155 10.0203C22.7017 10.3624 22.7632 10.7586 22.6893 11.1409C22.6154 11.5233 22.4107 11.8681 22.1104 12.1161C21.8101 12.3641 21.4329 12.4999 21.0434 12.5001H18.4997" stroke="#71A341" stroke-width="1.5" stroke-linecap="round" stroke-linejoin="round"/>
<path d="M20.3789 13.7501V12.5001" stroke="#71A341" stroke-width="1.5" stroke-linecap="round" stroke-linejoin="round"/>
</svg>
