<svg width="30" height="30" viewBox="0 0 30 30" fill="none" xmlns="http://www.w3.org/2000/svg">
<path d="M12.604 12.6997V6.27915C12.604 0.409141 23.3857 -0.0476912 23.3857 5.44057C23.3857 8.11346 18.3617 11.8406 17.2835 12.5593" stroke="#F8971D" stroke-width="1.24875" stroke-miterlimit="10" stroke-linecap="round" stroke-linejoin="round"/>
<path d="M17.396 17.3003V23.7208C17.396 29.5909 6.61426 30.0476 6.61426 24.5594C6.61426 21.8865 11.6382 18.1595 12.7165 17.4407" stroke="#F8971D" stroke-width="1.24875" stroke-miterlimit="10" stroke-linecap="round" stroke-linejoin="round"/>
<path d="M17.3009 12.604H23.7214C29.5915 12.604 30.0482 23.3857 24.56 23.3857C21.8871 23.3857 18.16 18.3617 17.4412 17.2835" stroke="#F8971D" stroke-width="1.24875" stroke-miterlimit="10" stroke-linecap="round" stroke-linejoin="round"/>
<path d="M12.6991 17.396H6.27854C0.408528 17.396 -0.0483041 6.61426 5.43997 6.61426C8.11286 6.61426 11.8399 11.6382 12.5587 12.7165" stroke="#F8971D" stroke-width="1.24875" stroke-miterlimit="10" stroke-linecap="round" stroke-linejoin="round"/>
<path d="M15 18.2587C16.8195 18.2587 18.2944 16.7838 18.2944 14.9643C18.2944 13.1448 16.8195 11.6699 15 11.6699C13.1805 11.6699 11.7056 13.1448 11.7056 14.9643C11.7056 16.7838 13.1805 18.2587 15 18.2587Z" stroke="#F8971D" stroke-width="1.24875" stroke-miterlimit="10" stroke-linecap="round" stroke-linejoin="round"/>
</svg>
