<svg width="30" height="30" viewBox="0 0 30 30" fill="none" xmlns="http://www.w3.org/2000/svg">
<g clip-path="url(#clip0_630_20536)">
<path d="M7.29163 14.4094C7.65102 14.05 7.89061 13.451 7.89061 12.9718C7.89061 12.3728 7.65102 11.8936 7.29163 11.5342L6.21347 10.5758C5.61448 9.97685 5.3749 9.13826 5.73429 8.29968C6.09368 7.5809 6.81246 6.98191 7.65104 7.10171L9.08858 7.22151C9.68756 7.22151 10.1668 6.98191 10.646 6.62252C11.0054 6.26313 11.2449 5.66415 11.2449 5.06516L11.1252 3.6276C11.1252 2.78902 11.6043 2.07024 12.3231 1.71085C13.0419 1.35146 14.0003 1.59106 14.5993 2.19005L15.5576 3.26821C15.9169 3.6276 16.516 3.86719 16.9952 3.86719C17.5942 3.86719 18.0734 3.6276 18.4328 3.26821L19.3912 2.19005C19.9902 1.59106 20.8287 1.35146 21.6673 1.71085C22.3861 2.07024 22.9851 2.78902 22.8653 3.6276L22.7454 5.06516C22.7454 5.66415 22.985 6.14333 23.3443 6.62252C23.7037 6.98191 24.3028 7.22151 24.9018 7.22151L26.3393 7.10171C27.1778 7.10171 27.8967 7.5809 28.2561 8.29968C28.6155 9.01846 28.3759 9.97685 27.777 10.5758L26.6988 11.5342C26.3394 11.8936 26.0998 12.4926 26.0998 12.9718C26.0998 13.5708 26.3394 14.05 26.6988 14.4094L27.777 15.3677C28.3759 15.9667 28.6155 16.8053 28.2561 17.6439C27.8967 18.3627 27.1778 18.9616 26.3393 18.8418L24.9018 18.722C24.3028 18.722 23.8235 18.9616 23.3443 19.321C22.985 19.6804 22.7454 20.2794 22.7454 20.8784L22.8653 22.316C22.8653 23.1545 22.3861 23.8733 21.6673 24.2327C20.9485 24.5921 19.9902 24.3525 19.3912 23.7535L18.4328 22.6753C18.0734 22.316 17.4744 22.0764 16.9952 22.0764C16.3962 22.0764 15.9169 22.316 15.5576 22.6753L14.5993 23.7535" stroke="#71A341" stroke-width="1.24875" stroke-miterlimit="10" stroke-linecap="round" stroke-linejoin="round"/>
<path d="M19.0319 13.5705L21.3433 11.2591C22.0057 12.9197 21.756 15.0392 20.3497 16.4456C19.0319 17.7634 17.1152 18.1228 15.438 17.5238L10.7659 22.1959C11.3649 23.873 11.0055 25.7898 9.68774 27.1076C8.27311 28.5221 6.27841 28.7768 4.5028 28.0996L6.81259 25.7898C7.53137 25.071 7.53137 23.9928 6.81259 23.2741C6.09381 22.5553 5.01566 22.5553 4.29688 23.2741L1.98323 25.5877C1.19334 23.8111 1.56345 21.8146 2.97912 20.3989C4.29688 19.0812 6.21363 18.7218 7.89079 19.3208L12.5629 14.6487C11.9639 12.9715 12.3233 11.0548 13.6411 9.737C15.048 8.33004 17.0576 8.08152 18.8259 8.74497L16.5161 11.0548C15.7973 11.7735 15.7973 12.8517 16.5161 13.5705C17.2349 14.2893 18.3132 14.2893 19.0319 13.5705Z" stroke="#71A341" stroke-width="1.24875" stroke-miterlimit="10" stroke-linecap="round" stroke-linejoin="round"/>
</g>
<defs>
<clipPath id="clip0_630_20536">
<rect width="30" height="30" fill="white"/>
</clipPath>
</defs>
</svg>
