<?xml version="1.0" encoding="UTF-8"?>
<svg id="Layer_1" data-name="Layer 1" xmlns="http://www.w3.org/2000/svg" xmlns:xlink="http://www.w3.org/1999/xlink" viewBox="0 0 260.21 32.05">
  <defs>
    <style>
      .cls-1 {
        fill: #da1a32;
      }

      .cls-1, .cls-2, .cls-3, .cls-4 {
        stroke-width: 0px;
      }

      .cls-2 {
        fill: none;
      }

      .cls-5 {
        clip-path: url(#clippath);
      }

      .cls-3 {
        fill: #3b4e31;
      }

      .cls-4 {
        fill: #71a341;
      }
    </style>
    <clipPath id="clippath">
      <rect class="cls-2" width="260.21" height="32"/>
    </clipPath>
  </defs>
  <g class="cls-5">
    <g>
      <path class="cls-1" d="M46.63,7.24h-10.52c-2.98,0-4.99,1.47-6.02,5.38l-.98,3.82-.98,3.82c-.98,3.96.34,5.43,3.33,5.43h14.39l1.52-3.72c-1.08.49-1.57.68-4.4.68h-6.95c-.93,0-1.32-.29-1.08-1.17l1.27-4.99,1.22-4.99c.24-.88.78-1.17,1.66-1.17h3.03c.93,0,1.27.29,1.08,1.17l-.88,3.47h-3.77l-.73,3.03h10.76l.44-1.81.88-3.52c1.03-3.96-.29-5.43-3.28-5.43Z"/>
      <path class="cls-1" d="M9.69,17.71l4.4-6.21,1.08,6.21h-5.48ZM15.61,20.75l.39,2.35c.1.39.05.93-.05,1.37-.1.39-.2.54-.73,1.22h9.25c-.44-.69-.78-1.57-.98-2.5l-2.59-15.9h-8.32l.54,1.03L2.94,22.36c-1.03,1.42-1.47,1.96-2.94,3.33h5.19c-.2-.64-.24-.69-.1-1.32.1-.39.29-.78.54-1.08l1.86-2.54h8.12Z"/>
      <path class="cls-1" d="M72.17,10.81c-.69-.29-1.32-.49-2.69-.49h-5.04c-.93,0-1.47.29-1.66,1.17l-2.5,9.98c-.24.88.15,1.17,1.08,1.17h3.96c2.84,0,3.33-.2,4.4-.68l-1.57,3.72h-11.3c-2.98,0-4.31-1.42-3.33-5.43l1.86-7.58c1.03-3.96,3.03-5.38,6.02-5.38h11.06l-.29,3.52Z"/>
      <path class="cls-1" d="M83.57,11.5c.24-.88.73-1.17,1.66-1.17h3.03c.88,0,1.27.29,1.08,1.17l-2.5,9.98c-.24.88-.73,1.17-1.66,1.17h-2.98c-.93,0-1.32-.29-1.08-1.17l2.45-9.98ZM74.37,20.31c-.98,3.96.29,5.43,3.33,5.43h10.52c2.98,0,5.04-1.42,6.02-5.43l1.86-7.58c.98-3.96-.29-5.38-3.33-5.38h-10.52c-2.98,0-4.99,1.42-6.02,5.38l-1.86,7.58Z"/>
      <path class="cls-1" d="M105.44,10.42h.25l-2.99,11.94c-.54,2.06-.54,2.45-.15,3.33h-4.7c.83-.88.98-1.22,1.52-3.33l2.94-11.84c.54-2.06.54-2.4.15-3.28h9.83l3.72,15.02h-.2l2.94-11.74c.54-2.06.54-2.4.15-3.28h4.7c-.83.83-.98,1.22-1.52,3.28l-3.77,15.12h-9.05l-3.82-15.22Z"/>
      <path class="cls-4" d="M156.13.59c-.05-.39-.49-.69-.88-.54-2.99.98-5.63,2.1-7.93,3.33-.73.39-1.42.73-2.05,1.17-7.93,4.75-11.35,10.72-11.69,15.51v.39s.1,2.15.39,3.08l.1.29c.39,1.08.98,1.96,1.71,2.69l-3.47,4.35c-.24.24-.29.69-.1.93.05.1.15.15.2.2.19.1.44.05.64-.1l4.16-4.26c7.39,3.91,21.24-8.95,18.94-27.06ZM139.5,25.3l6.65-6.56c.2-.15.29-.34.29-.59s-.1-.44-.29-.54l-1.96-1.17,7.29-7.93c.25-.29.29-.64.05-.88-.1-.15-.24-.2-.39-.24-.15,0-.34.05-.49.15l-10.76,9.25c-.2.15-.29.34-.29.59s.1.44.29.54l2.15,1.32-4.45,5.24c-.15-.1-.24-.2-.34-.34-.54-.64-.93-1.91-1.03-2.84-.15-3.43,2.54-8.56,9.49-13.26.64-.44,1.37-.88,2.1-1.32,1.52-.88,3.18-1.76,4.99-2.59.39-.2.88.1.93.54,1.12,11.65-8.61,21.63-14.24,20.65Z"/>
      <path class="cls-3" d="M165.82,10.76c0-1.96,1.52-3.57,3.57-3.57,1.22,0,1.96.34,2.69.93l-.93,1.13c-.54-.44-.98-.69-1.81-.69-1.08,0-1.96.98-1.96,2.15,0,1.27.88,2.15,2.05,2.15.54,0,1.03-.15,1.42-.39v-.98h-1.52v-1.32h2.98v2.98c-.68.59-1.66,1.08-2.93,1.08-2.1.05-3.57-1.47-3.57-3.47Z"/>
      <path class="cls-3" d="M175.12,7.29h3.13c.88,0,1.57.24,2.01.69.39.39.59.93.59,1.57,0,1.13-.59,1.81-1.47,2.1l1.66,2.45h-1.76l-1.47-2.2h-1.17v2.2h-1.52v-6.8ZM178.15,10.62c.73,0,1.17-.39,1.17-.98,0-.64-.44-.98-1.17-.98h-1.52v1.96h1.52Z"/>
      <path class="cls-3" d="M183.49,7.29h5.19v1.32h-3.72v1.37h3.23v1.32h-3.23v1.42h3.72v1.32h-5.19v-6.75Z"/>
      <path class="cls-3" d="M191.36,7.29h5.19v1.32h-3.67v1.37h3.23v1.32h-3.23v1.42h3.72v1.32h-5.24v-6.75Z"/>
      <path class="cls-3" d="M199.29,7.29h1.37l3.23,4.21v-4.21h1.47v6.85h-1.27l-3.33-4.35v4.35h-1.47v-6.85Z"/>
      <path class="cls-3" d="M212.4,7.29h5.19v1.32h-3.67v1.37h3.23v1.32h-3.23v1.42h3.72v1.32h-5.24v-6.75Z"/>
      <path class="cls-3" d="M220.28,7.29h1.37l3.23,4.21v-4.21h1.47v6.85h-1.27l-3.33-4.35v4.35h-1.47v-6.85Z"/>
      <path class="cls-3" d="M229.33,7.29h5.19v1.32h-3.67v1.37h3.23v1.32h-3.23v1.42h3.72v1.32h-5.24v-6.75Z"/>
      <path class="cls-3" d="M237.21,7.29h3.13c.88,0,1.57.24,2.01.69.39.39.59.93.59,1.57,0,1.13-.59,1.81-1.47,2.1l1.66,2.45h-1.76l-1.47-2.2h-1.17v2.2h-1.52v-6.8ZM240.24,10.62c.73,0,1.17-.39,1.17-.98,0-.64-.44-.98-1.17-.98h-1.52v1.96h1.52Z"/>
      <path class="cls-3" d="M245.14,10.76c0-1.96,1.52-3.57,3.57-3.57,1.22,0,1.96.34,2.69.93l-.93,1.13c-.54-.44-.98-.69-1.81-.69-1.08,0-1.96.98-1.96,2.15,0,1.27.88,2.15,2.05,2.15.54,0,1.03-.15,1.42-.39v-.98h-1.52v-1.32h2.98v2.98c-.68.59-1.66,1.08-2.94,1.08-2.1.05-3.57-1.47-3.57-3.47Z"/>
      <path class="cls-3" d="M256.05,11.45l-2.64-4.16h1.76l1.61,2.74,1.66-2.74h1.71l-2.64,4.11v2.74h-1.52v-2.69h.05Z"/>
      <path class="cls-3" d="M165.63,25.39l.88-1.08c.64.49,1.27.83,2.06.83.64,0,.98-.24.98-.64s-.24-.59-1.37-.88c-1.37-.34-2.25-.73-2.25-2.1,0-1.22.98-2.06,2.4-2.06.98,0,1.86.29,2.54.88l-.78,1.13c-.59-.44-1.22-.68-1.76-.68s-.88.24-.88.59c0,.44.29.59,1.47.88,1.37.34,2.15.88,2.15,2.06,0,1.37-1.03,2.1-2.49,2.1-1.03.05-2.1-.29-2.94-1.03Z"/>
      <path class="cls-3" d="M173.21,23c0-1.96,1.52-3.57,3.67-3.57s3.62,1.57,3.62,3.52-1.52,3.52-3.67,3.52c-2.1.05-3.62-1.57-3.62-3.47ZM178.94,23c0-1.17-.88-2.15-2.06-2.15s-2.05.98-2.05,2.15.88,2.15,2.05,2.15,2.06-.98,2.06-2.15Z"/>
      <path class="cls-3" d="M183.1,19.52h1.52v5.48h3.43v1.37h-4.94v-6.85Z"/>
      <path class="cls-3" d="M190.09,23.44v-3.91h1.52v3.87c0,1.13.54,1.71,1.47,1.71s1.47-.54,1.47-1.66v-3.91h1.52v3.87c0,2.06-1.17,3.08-2.99,3.08s-2.98-1.03-2.98-3.03Z"/>
      <path class="cls-3" d="M200.42,20.94h-2.1v-1.37h5.68v1.37h-2.1v5.48h-1.52v-5.48h.05Z"/>
      <path class="cls-3" d="M206.29,19.52h1.52v6.85h-1.52v-6.85Z"/>
      <path class="cls-3" d="M210.45,23c0-1.96,1.52-3.57,3.67-3.57s3.62,1.57,3.62,3.52-1.52,3.52-3.67,3.52c-2.1.05-3.62-1.57-3.62-3.47ZM216.12,23c0-1.17-.88-2.15-2.05-2.15s-2.06.98-2.06,2.15.88,2.15,2.06,2.15,2.05-.98,2.05-2.15Z"/>
      <path class="cls-3" d="M220.28,19.52h1.37l3.23,4.21v-4.21h1.47v6.85h-1.27l-3.33-4.35v4.35h-1.47v-6.85Z"/>
      <path class="cls-3" d="M228.84,25.39l.88-1.08c.64.49,1.27.83,2.05.83.64,0,.98-.24.98-.64s-.24-.59-1.37-.88c-1.37-.34-2.25-.73-2.25-2.1,0-1.22.98-2.06,2.4-2.06.98,0,1.86.29,2.54.88l-.78,1.13c-.59-.44-1.22-.68-1.76-.68s-.88.24-.88.59c0,.44.29.59,1.47.88,1.37.34,2.15.88,2.15,2.06,0,1.37-1.03,2.1-2.49,2.1-1.08.05-2.15-.29-2.94-1.03Z"/>
    </g>
  </g>
</svg>