<svg width="386" height="33" viewBox="0 0 386 33" fill="none" xmlns="http://www.w3.org/2000/svg">
<g clip-path="url(#clip0_654_7523)">
<path d="M74.7296 0.24585H57.8791C53.0745 0.24585 49.8492 2.57047 48.2246 8.90883L46.6931 15.0608L45.1617 21.1794C43.5944 27.5655 45.704 29.8687 50.5038 29.8687H73.5756L76.0412 23.8743C74.3091 24.6675 73.492 24.9757 68.9789 24.9757H57.7118C56.2138 24.9757 55.6285 24.4931 55.963 23.1074L57.9651 15.0943V15.0585L59.96 7.02859C60.3303 5.61422 61.2023 5.13879 62.643 5.13879H67.5383C69.0052 5.13879 69.6121 5.61422 69.28 7.02859L67.8728 12.5929H61.8355L60.6481 17.493H77.9071L78.6406 14.583L80.0645 8.90405C81.627 2.56808 79.5317 0.24585 74.7296 0.24585ZM33.4693 0.324691H20.1523L21.0315 1.98752L4.66836 24.4955C3.05331 26.7843 2.32223 27.6253 0 29.8687H8.32373C7.98925 28.8724 7.95102 28.7553 8.20666 27.7638C8.38107 27.1379 8.66776 26.5382 9.06197 25.9959L12.0436 21.9391H25.0118L25.6545 25.7187C25.793 26.3734 25.7094 27.2191 25.547 27.9263C25.3749 28.5857 25.2388 28.7529 24.405 29.8663H39.1722C38.4435 28.7529 37.894 27.3362 37.6312 25.831L33.4693 0.324691ZM15.5556 17.0558L22.5821 7.05726L24.2831 17.0558H15.5532H15.5556ZM88.8828 8.97095L85.8677 21.177C84.2431 27.5632 86.3742 29.8663 91.1787 29.8663H109.327L111.799 23.8719C110.067 24.6651 109.264 24.9733 104.747 24.9733H98.382C96.927 24.9733 96.2891 24.4931 96.6546 23.105L100.635 7.08832C100.972 5.66201 101.849 5.21046 103.311 5.21046H111.393C113.56 5.21046 114.552 5.52344 115.684 5.98215L116.245 0.324691H98.542C93.7375 0.324691 90.5122 2.59914 88.8828 8.96856V8.97095ZM148.692 0.324691H131.844C127.04 0.324691 123.812 2.59675 122.202 8.96856L119.172 21.1746C117.586 27.5608 119.679 29.8639 124.493 29.8639H141.331C146.136 29.8639 149.402 27.5608 150.986 21.1746L154.003 8.96856C155.606 2.59675 153.497 0.324691 148.692 0.324691ZM143.221 7.08832L139.246 23.105C138.875 24.4955 138.058 24.9733 136.565 24.9733H131.708C130.229 24.9733 129.596 24.4907 129.978 23.105L133.937 7.08832C134.319 5.66201 135.136 5.21046 136.613 5.21046H141.508C142.949 5.21046 143.584 5.66201 143.224 7.08832H143.221ZM190.521 0.32708C191.14 1.68888 191.14 2.26466 190.301 5.576L185.791 23.7716L179.968 0.32708H164.179C164.809 1.68888 164.797 2.26466 163.956 5.576L159.233 24.5529C158.416 27.8809 158.136 28.471 156.815 29.8663H164.372C163.732 28.471 163.732 27.8785 164.585 24.5529L169.165 6.10399L175.066 29.8687H189.575L195.651 5.57839C196.453 2.26705 196.757 1.68888 198.059 0.329469H190.519L190.521 0.32708Z" fill="#D91F33"/>
<path d="M233.745 0.327148H224.712C221.049 0.327148 217.535 1.78213 214.94 4.37433C212.351 6.96654 210.896 10.4809 210.896 14.1435C210.888 17.2302 211.93 20.2238 213.846 22.644L214.073 22.9379L213.882 23.2508C212.556 25.4154 211.565 27.7663 210.943 30.2271C210.757 31.0729 211.275 31.909 212.114 32.1169C212.953 32.3271 213.806 31.8278 214.037 30.9964C214.51 29.1496 215.227 27.3721 216.164 25.7116L216.446 25.1813L216.931 25.511C219.704 27.4031 223.078 28.2226 226.413 27.8069C229.748 27.3936 232.821 25.7785 235.05 23.2628C237.281 20.747 238.516 17.505 238.528 14.1435V5.11019C238.528 2.4702 236.385 0.327148 233.745 0.327148ZM235.339 14.1435C235.339 16.7381 234.39 19.2419 232.67 21.1842C230.952 23.129 228.582 24.3737 226.004 24.6915C223.431 25.0069 220.827 24.369 218.691 22.8996L218.218 22.5771L218.579 22.1303C220.519 19.734 222.856 17.6842 225.486 16.0739C226.234 15.6367 226.494 14.681 226.074 13.9213C225.648 13.1639 224.698 12.882 223.933 13.2882C221.109 14.9845 218.584 17.1395 216.462 19.6648L215.987 20.2262L215.605 19.5883H215.602C214.312 17.4285 213.832 14.8817 214.245 12.4042C214.656 9.92189 215.932 7.66894 217.848 6.04195C219.764 4.41256 222.196 3.51902 224.71 3.51425H233.743C234.622 3.51425 235.336 4.2286 235.336 5.1078V14.1411L235.339 14.1435Z" fill="#71A341"/>
<path d="M280.049 7.02847H283.37V4.7134H280.049V2.68742H284.486V0.326959H277.478V11.4985H284.629V9.13568H280.049V7.02847ZM305.099 7.33189H304.987L300.342 0.326959H297.771V11.4985H300.342V4.4936H300.454L305.099 11.4985H307.67V0.326959H305.099V7.33189ZM273.923 4.17107C273.923 1.84167 272.263 0.326959 269.759 0.326959H265.783V11.4985H268.354V7.84316H269.725L272.007 11.4985H274.719L272.038 7.351C273.218 6.77522 273.921 5.6595 273.921 4.17346L273.923 4.17107ZM269.599 5.65472H268.354V2.68742H269.599C270.636 2.68742 271.352 3.06968 271.352 4.17107C271.352 5.27246 270.633 5.65472 269.599 5.65472ZM294.775 9.13329H290.196V7.02608H293.516V4.71101H290.196V2.68503H294.632V0.326959H287.625V11.4985H294.775V9.13568V9.13329ZM346.5 9.13329H341.92V7.02608H345.241V4.71101H341.92V2.68503H346.357V0.326959H339.349V11.4985H346.5V9.13568V9.13329ZM323.223 9.13329H318.643V7.02608H321.964V4.71101H318.643V2.68503H323.08V0.326959H316.072V11.4985H323.223V9.13568V9.13329ZM262.74 5.33457H257.89V7.45612H260.41C260.107 8.79642 259.149 9.24319 257.84 9.24319C255.923 9.24319 254.681 7.83838 254.681 5.90797C254.681 3.97755 256.005 2.57274 257.969 2.57274C258.733 2.57274 259.483 2.8451 260.042 3.22736L261.591 1.48808C260.618 0.642324 259.309 0.162109 257.809 0.162109C254.65 0.162109 252.001 2.50823 252.001 5.90797C252.001 9.3077 254.602 11.6538 257.809 11.6538C260.84 11.6538 263.33 9.27664 262.74 5.33457ZM357.638 4.16868C357.638 1.83928 355.978 0.32457 353.474 0.32457H349.499V11.4961H352.069V7.84077H353.441L355.722 11.4961H358.434L355.753 7.34861C356.933 6.77283 357.636 5.65711 357.636 4.17107L357.638 4.16868ZM353.314 5.65233H352.069V2.68503H353.314C354.351 2.68503 355.068 3.06729 355.068 4.16868C355.068 5.27007 354.348 5.65233 353.314 5.65233ZM366.844 5.33457V7.45612H369.364C369.061 8.79642 368.103 9.24319 366.793 9.24319C364.877 9.24319 363.635 7.83838 363.635 5.90797C363.635 3.97755 364.959 2.57274 366.922 2.57274C367.687 2.57274 368.437 2.8451 368.996 3.22736L370.544 1.48808C369.572 0.642324 368.263 0.162109 366.762 0.162109C363.604 0.162109 360.954 2.50823 360.954 5.90797C360.954 9.3077 363.556 11.6538 366.762 11.6538C369.794 11.6538 372.284 9.27664 371.694 5.33457H366.844ZM382.385 0.326959L379.735 4.74685L377.086 0.326959H374.181L378.44 7.15748V11.4985H381.011V7.15748L385.288 0.326959H382.382H382.385ZM336.117 11.4985V0.326959H333.546V7.33189H333.434L328.79 0.326959H326.219V11.4985H328.79V4.4936H328.902L333.546 11.4985H336.117ZM321.039 18.5369C317.881 18.5369 315.231 20.852 315.231 24.2828C315.231 27.7136 317.881 30.0286 321.039 30.0286C324.198 30.0286 326.85 27.7159 326.85 24.2828C326.85 20.8496 324.2 18.5369 321.039 18.5369ZM321.039 27.618C319.235 27.618 317.912 26.2466 317.912 24.2828C317.912 22.3189 319.235 20.9475 321.039 20.9475C322.843 20.9475 324.183 22.3189 324.183 24.2828C324.183 26.2466 322.843 27.618 321.039 27.618ZM309.662 29.8685H312.233V18.697H309.662V29.8685ZM279.908 18.697H277.337V29.8685H284.153V27.5057H279.908V18.697ZM293.263 25.7186C293.263 27.2501 292.241 27.618 291.459 27.618C290.678 27.618 289.641 27.2501 289.641 25.7186V18.697H287.071V25.7019C287.071 28.4613 289.034 30.0262 291.459 30.0262C293.884 30.0262 295.832 28.4613 295.832 25.7019V18.697H293.263V25.7186ZM256.631 23.1479L255.88 22.8756C255.097 22.6032 254.762 22.2998 254.762 21.8052C254.762 21.1984 255.243 20.7994 256.007 20.7994C256.822 20.7994 257.3 21.1673 257.923 21.9653L259.808 20.8329C259.201 19.7793 258.035 18.5345 255.993 18.5345C253.95 18.5345 252.211 19.7147 252.211 21.7264C252.211 23.738 253.63 24.4237 255.259 25.0138L255.883 25.2384C257.08 25.6685 257.462 25.9575 257.462 26.5787C257.462 27.3934 256.872 27.7112 256.043 27.7112C254.798 27.7112 254.208 26.9275 253.809 26.2108L251.848 27.2644C252.373 28.8436 253.972 30.0238 256.045 30.0238C257.928 30.0238 260.131 28.9392 260.131 26.6265C260.131 25.1261 259.237 24.0558 256.635 23.1479H256.631ZM268.533 18.5345C265.375 18.5345 262.725 20.8496 262.725 24.2804C262.725 27.7112 265.375 30.0262 268.533 30.0262C271.692 30.0262 274.344 27.7136 274.344 24.2804C274.344 20.8472 271.694 18.5345 268.533 18.5345ZM268.533 27.6156C266.73 27.6156 265.406 26.2442 265.406 24.2804C265.406 22.3165 266.73 20.9451 268.533 20.9451C270.337 20.9451 271.677 22.3165 271.677 24.2804C271.677 26.2442 270.337 27.6156 268.533 27.6156ZM298.751 21.0574H301.463V29.8662H304.033V21.0574H306.745V18.6946H298.751V21.0574ZM337.171 25.7019H337.058L332.414 18.697H329.843V29.8685H332.414V22.8636H332.526L337.171 29.8685H339.741V18.697H337.171V25.7019ZM347.365 23.1479L346.615 22.8756C345.831 22.6032 345.497 22.2998 345.497 21.8052C345.497 21.1984 345.977 20.7994 346.741 20.7994C347.556 20.7994 348.034 21.1673 348.658 21.9653L350.543 20.8329C349.936 19.7793 348.77 18.5345 346.727 18.5345C344.684 18.5345 342.945 19.7147 342.945 21.7264C342.945 23.738 344.364 24.4237 345.994 25.0138L346.617 25.2384C347.814 25.6685 348.196 25.9575 348.196 26.5787C348.196 27.3934 347.606 27.7112 346.777 27.7112C345.533 27.7112 344.942 26.9275 344.543 26.2108L342.582 27.2644C343.108 28.8436 344.706 30.0238 346.78 30.0238C348.662 30.0238 350.865 28.9392 350.865 26.6265C350.865 25.1261 349.972 24.0558 347.37 23.1479H347.365Z" fill="#3B4E31"/>
</g>
<defs>
<clipPath id="clip0_654_7523">
<rect width="385.29" height="32" fill="white" transform="translate(0 0.166992)"/>
</clipPath>
</defs>
</svg>
