<svg width="105" height="48" viewBox="0 0 105 48" fill="none" xmlns="http://www.w3.org/2000/svg">
<g clip-path="url(#clip0_702_13641)">
<path d="M40.1831 2.7802e-07H31.4248C28.929 -0.000668497 27.2517 1.20513 26.4077 4.4935L25.6118 7.68623L24.8147 10.8609C23.9994 14.1747 25.0969 15.3698 27.5901 15.3705H39.5832L40.8653 12.2607C39.9658 12.6726 39.5418 12.8331 37.195 12.8331H31.3399C30.5628 12.8331 30.2565 12.583 30.4304 11.8621L31.4717 7.70496V7.6869L32.5096 3.52043C32.7015 2.78746 33.155 2.54001 33.904 2.54001H36.448C37.2111 2.54001 37.5261 2.78746 37.3515 3.5211L36.6212 6.40887H33.484L32.8667 8.95156H41.8363L42.2182 7.44213L42.9579 4.49484C43.7678 1.20647 42.6783 0.000669053 40.1831 2.7802e-07Z" fill="#DA1A32"/>
<path d="M9.42791 8.7208L13.0808 3.53245L13.9655 8.7208H9.42857H9.42791ZM14.3421 11.2561L14.6758 13.2176C14.7473 13.5574 14.7052 13.9961 14.6196 14.3633C14.53 14.7057 14.4591 14.7919 14.0257 15.3698H21.6999C21.3221 14.7926 21.0352 14.0563 20.8987 13.2758L18.7393 0.0407715H11.8174L12.2749 0.902823L3.7714 12.5816C2.93209 13.7701 2.55089 14.2054 1.34375 15.3691H5.66939C5.49484 14.8528 5.47611 14.7919 5.60786 14.277C5.69815 13.952 5.84795 13.6417 6.05126 13.3608L7.60081 11.2555H14.3421V11.2561Z" fill="#DA1A32"/>
<path d="M61.4673 2.98005C60.8781 2.7413 60.3638 2.57878 59.2376 2.57811H55.0377C54.2779 2.57811 53.8218 2.81352 53.6466 3.55252L51.5781 11.8634C51.3895 12.5843 51.7192 12.8338 52.4769 12.8338H55.7847C58.1314 12.8338 58.5501 12.6733 59.4503 12.262L58.1649 15.3725H48.7331C46.2366 15.3718 45.1291 14.1767 45.9731 10.8622L47.5414 4.52826C48.3847 1.22251 50.0613 0.043457 52.5579 0.043457H61.7582L61.4673 2.98005Z" fill="#DA1A32"/>
<path d="M70.9528 3.55454C71.1515 2.81554 71.5748 2.58013 72.3439 2.58013H74.8886C75.6376 2.58013 75.9666 2.81621 75.7787 3.55521L73.7129 11.8661C73.5209 12.587 73.0956 12.8365 72.3185 12.8365H69.7945C69.0261 12.8365 68.6964 12.587 68.8943 11.8654L70.9528 3.55454ZM63.2793 10.8649C62.4554 14.1787 63.5435 15.3738 66.0447 15.3745H74.797C77.2942 15.3751 78.9908 14.1807 79.8154 10.8663L81.3844 4.53229C82.2177 1.22519 81.1202 0.0461429 78.6244 0.0461429H69.8674C67.3702 0.0454741 65.6929 1.22452 64.8543 4.53095L63.2793 10.8649Z" fill="#DA1A32"/>
<path d="M89.1651 2.65771H89.357L86.8792 12.6171C86.4365 14.3439 86.4365 14.6509 86.7695 15.3751H82.8418C83.5286 14.6509 83.6751 14.3439 84.0991 12.6171L86.5535 2.77006C86.9909 1.05131 86.9976 0.753038 86.6692 0.0461426H94.8751L97.9822 12.5456H97.8177L100.245 2.7714C100.682 1.05265 100.682 0.754376 100.36 0.0474801H104.278C103.601 0.754376 103.443 1.05332 103.025 2.7714L99.8661 15.3765H92.325L89.1651 2.65838V2.65771Z" fill="#DA1A32"/>
<path d="M19.1397 23.0227C19.1002 22.7024 18.7665 22.497 18.4528 22.5893C16.0861 23.3624 13.9854 24.2512 12.1543 25.2236V25.2129C11.5812 25.5186 11.0294 25.8155 10.5071 26.1359V26.1466C4.19189 29.9659 1.44924 34.7129 1.1931 38.5048C1.19243 38.5155 1.17705 38.7155 1.18039 38.8111C1.18039 38.8111 1.24058 40.5312 1.49204 41.2595C1.48134 41.2589 1.55758 41.5083 1.55758 41.5083C1.85385 42.3463 2.31798 43.0692 2.91988 43.6444L0.169873 47.0886C-0.0361102 47.2952 -0.0508232 47.6223 0.104333 47.8142C0.151147 47.8918 0.201305 47.9272 0.272864 47.9647H0.283564C0.458783 48.0316 0.64069 48.0035 0.77712 47.8757L4.07351 44.4837C9.95339 47.641 20.9567 37.4328 19.139 23.022L19.1397 23.0227ZM5.89392 42.6847L11.1813 37.4743C11.3277 37.3586 11.4254 37.186 11.428 37.0168C11.4314 36.8369 11.3384 36.6604 11.1966 36.5754L9.65912 35.6331L15.4634 29.3293C15.66 29.1112 15.6835 28.8063 15.5176 28.6137C15.4414 28.502 15.329 28.4512 15.2033 28.4311C15.0769 28.4217 14.9371 28.4532 14.8247 28.5401L6.27178 35.906C6.12598 36.0117 6.03904 36.1849 6.04439 36.3862C6.03971 36.5868 6.13401 36.7426 6.27579 36.8276L7.99588 37.8795L4.37981 41.9992C4.28017 41.9176 4.19189 41.826 4.10361 41.7344C3.68562 41.2475 3.36127 40.2169 3.28101 39.4592C3.15997 36.7286 5.32212 32.6578 10.8255 28.9253C11.3498 28.5735 11.8955 28.2231 12.4834 27.8653V27.876C13.6805 27.1624 15.0033 26.4689 16.4619 25.8061C16.7802 25.661 17.1661 25.8703 17.1922 26.2322C18.0951 35.5335 10.3573 43.4585 5.89459 42.6854L5.89392 42.6847Z" fill="#71A341"/>
<path d="M26.8125 31.106V31.0906C26.8125 29.5424 28.019 28.2744 29.6682 28.2744C30.6486 28.2744 31.2398 28.5392 31.8076 29.0214L31.0525 29.9316C30.6325 29.5812 30.2594 29.3792 29.6287 29.3792C28.7573 29.3792 28.0651 30.1497 28.0651 31.0752V31.0906C28.0651 32.0864 28.7499 32.8181 29.7143 32.8181C30.1497 32.8181 30.5389 32.7091 30.8425 32.491V31.7133H29.6367V30.6787H32.0022V33.0441C31.4418 33.5189 30.6713 33.9075 29.6755 33.9075C27.9795 33.9075 26.8125 32.7164 26.8125 31.106Z" fill="#3B4E31"/>
<path d="M34.2116 28.3682H36.7015C37.3943 28.3682 37.9307 28.5628 38.2885 28.9212C38.5921 29.2249 38.7553 29.6529 38.7553 30.1658V30.1812C38.7553 31.06 38.2804 31.6131 37.5883 31.8692L38.9184 33.8147H37.518L36.351 32.0718H35.4094V33.8147H34.2109V28.3682H34.2116ZM36.6239 31.0138C37.2071 31.0138 37.5421 30.7029 37.5421 30.2434V30.228C37.5421 29.7144 37.1843 29.4502 36.6005 29.4502H35.4101V31.0138H36.6239Z" fill="#3B4E31"/>
<path d="M40.8555 28.3687H44.9638V29.4347H42.0466V30.5395H44.614V31.6055H42.0466V32.7491H45.0032V33.8152H40.8561V28.3687H40.8555Z" fill="#3B4E31"/>
<path d="M47.1348 28.3687H51.2431V29.4347H48.3252V30.5395H50.8926V31.6055H48.3252V32.7491H51.2818V33.8152H47.1348V28.3687Z" fill="#3B4E31"/>
<path d="M53.4141 28.3694H54.5189L57.0709 31.7226V28.3694H58.2533V33.8159H57.2341L54.5971 30.3536V33.8159H53.4141V28.3694Z" fill="#3B4E31"/>
<path d="M63.8359 28.3701H67.9442V29.4361H65.0264V30.541H67.5938V31.607H65.0264V32.7506H67.983V33.8166H63.8359V28.3701Z" fill="#3B4E31"/>
<path d="M70.1152 28.3706H71.2201L73.7721 31.7238V28.3706H74.9552V33.8171H73.9353L71.2983 30.3549V33.8171H70.1152V28.3706Z" fill="#3B4E31"/>
<path d="M77.293 28.3713H81.4013V29.4374H78.4834V30.5422H81.0508V31.6082H78.4834V32.7518H81.44V33.8178H77.293V28.3713Z" fill="#3B4E31"/>
<path d="M83.5723 28.3713H86.0621C86.7543 28.3713 87.2913 28.566 87.6491 28.9244C87.9521 29.228 88.1159 29.6561 88.1159 30.169V30.1844C88.1159 31.0632 87.6411 31.6162 86.9489 31.8724L88.2791 33.8178H86.8787L85.7117 32.075H84.77V33.8178H83.5723V28.3713ZM85.9839 31.017C86.567 31.017 86.9021 30.706 86.9021 30.2466V30.2312C86.9021 29.7176 86.5443 29.4534 85.9605 29.4534H84.77V31.017H85.9839Z" fill="#3B4E31"/>
<path d="M89.877 31.1106V31.0953C89.877 29.547 91.0834 28.2791 92.7326 28.2791C93.713 28.2791 94.3042 28.5439 94.8727 29.0261L94.1177 29.9363C93.697 29.5858 93.3238 29.3839 92.6938 29.3839C91.8224 29.3839 91.1302 30.1543 91.1302 31.0799V31.0953C91.1302 32.0911 91.8144 32.8227 92.7794 32.8227C93.2148 32.8227 93.6047 32.7137 93.9077 32.4957V31.7179H92.7012V30.6833H95.0666V33.0488C94.5062 33.5236 93.7358 33.9121 92.74 33.9121C91.044 33.9121 89.877 32.7211 89.877 31.1106Z" fill="#3B4E31"/>
<path d="M98.5535 31.6719L96.4609 28.3728H97.8614L99.1608 30.559L100.484 28.3728H101.845L99.752 31.6485V33.8193H98.5535V31.6719Z" fill="#3B4E31"/>
<path d="M26.6797 42.744L27.3879 41.896C27.8781 42.3006 28.3911 42.5574 29.0137 42.5574C29.5039 42.5574 29.7995 42.3628 29.7995 42.0438V42.0284C29.7995 41.7248 29.6129 41.5696 28.7027 41.3362C27.6053 41.056 26.8977 40.7524 26.8977 39.6716V39.6562C26.8977 38.6678 27.6915 38.0144 28.8044 38.0144C29.5976 38.0144 30.2744 38.2639 30.8274 38.7073L30.2048 39.6101C29.7226 39.2757 29.2478 39.0731 28.789 39.0731C28.3296 39.0731 28.0888 39.2831 28.0888 39.5479V39.5633C28.0888 39.9211 28.3222 40.0375 29.2638 40.2789C30.3687 40.5671 30.9906 40.9637 30.9906 41.9127V41.9281C30.9906 43.0095 30.166 43.6161 28.991 43.6161C28.1657 43.6161 27.3338 43.3278 26.6804 42.7447L26.6797 42.744Z" fill="#3B4E31"/>
<path d="M32.7012 40.8301V40.8147C32.7012 39.2665 33.923 37.9978 35.6037 37.9978C37.2843 37.9978 38.4901 39.2504 38.4901 40.7993V40.8147C38.4901 42.3629 37.2682 43.6309 35.5876 43.6309C33.907 43.6309 32.7012 42.3783 32.7012 40.8301ZM37.2375 40.8301V40.8147C37.2375 39.8811 36.5526 39.1026 35.5883 39.1026C34.6232 39.1026 33.9545 39.865 33.9545 40.7986V40.814C33.9545 41.7476 34.6393 42.5254 35.6037 42.5254C36.568 42.5254 37.2375 41.763 37.2375 40.8294V40.8301Z" fill="#3B4E31"/>
<path d="M40.5391 38.092H41.7375V42.4491H44.4527V43.5385H40.5391V38.092Z" fill="#3B4E31"/>
<path d="M46.127 41.2045V38.092H47.3254V41.1731C47.3254 42.0599 47.7688 42.5193 48.4998 42.5193C49.2314 42.5193 49.6748 42.0759 49.6748 41.2119V38.092H50.8733V41.1657C50.8733 42.8149 49.947 43.6241 48.4844 43.6235C47.0218 43.6235 46.127 42.8062 46.1276 41.2038L46.127 41.2045Z" fill="#3B4E31"/>
<path d="M54.3037 39.1976H52.6465V38.0928H57.1594V39.1983H55.5022V43.5393H54.3044V39.1976H54.3037Z" fill="#3B4E31"/>
<path d="M59.002 38.0933H60.1997V43.5398H59.002V38.0933Z" fill="#3B4E31"/>
<path d="M62.2734 40.8327V40.8174C62.2734 39.2692 63.4953 38.0005 65.1759 38.0005C66.8566 38.0005 68.0624 39.2531 68.0624 40.802V40.8174C68.0624 42.3656 66.8405 43.6336 65.1599 43.6336C63.4792 43.6336 62.2734 42.381 62.2734 40.8327ZM66.8097 40.8327V40.8174C66.8097 39.8838 66.1249 39.1053 65.1605 39.1053C64.1955 39.1053 63.5267 39.8677 63.5267 40.8013V40.8167C63.5267 41.7503 64.2115 42.5281 65.1759 42.5281C66.141 42.5281 66.8097 41.7657 66.8097 40.8321V40.8327Z" fill="#3B4E31"/>
<path d="M70.1133 38.094H71.2181L73.7701 41.4479V38.0947H74.9525V43.5412H73.9333L71.2963 40.0789V43.5412H70.1133V38.0947V38.094Z" fill="#3B4E31"/>
<path d="M76.8984 42.7474L77.6067 41.8994C78.0969 42.304 78.6098 42.5608 79.2325 42.5608C79.7227 42.5608 80.0183 42.3662 80.0183 42.0472V42.0318C80.0183 41.7282 79.8317 41.573 78.9215 41.3396C77.824 41.0594 77.1165 40.7558 77.1165 39.675V39.6597C77.1165 38.6712 77.9103 38.0178 79.0231 38.0178C79.8163 38.0178 80.4931 38.2673 81.0462 38.7107L80.4236 39.6135C79.9414 39.2791 79.4665 39.0765 79.0078 39.0765C78.5483 39.0765 78.3076 39.2865 78.3076 39.5513V39.5667C78.3076 39.9245 78.541 40.0409 79.4826 40.2823C80.5874 40.5705 81.2094 40.9671 81.2094 41.9161V41.9315C81.2094 43.0129 80.3848 43.6195 79.2097 43.6195C78.3845 43.6195 77.5525 43.3312 76.8991 42.7481L76.8984 42.7474Z" fill="#3B4E31"/>
</g>
<defs>
<clipPath id="clip0_702_13641">
<rect width="104.279" height="48" fill="white"/>
</clipPath>
</defs>
</svg>
