<svg width="82" height="81" viewBox="0 0 82 81" fill="none" xmlns="http://www.w3.org/2000/svg">
<path d="M65.9993 29.6667L79.3327 38.8334V73.8334C79.3327 75.1595 78.8059 76.4313 77.8682 77.3689C76.9305 78.3066 75.6588 78.8334 74.3327 78.8334H7.66602C6.33993 78.8334 5.06816 78.3066 4.13048 77.3689C3.1928 76.4313 2.66602 75.1595 2.66602 73.8334V38.8334L15.9993 29.6667" stroke="#71A341" stroke-width="4" stroke-linecap="round" stroke-linejoin="round"/>
<path d="M12.666 68.8333L29.3327 55.5H52.666L69.3327 68.8333" stroke="#71A341" stroke-width="4" stroke-linecap="round" stroke-linejoin="round"/>
<path d="M66 47.7234V5.50008C66 4.61603 65.6488 3.76818 65.0237 3.14306C64.3986 2.51794 63.5507 2.16675 62.6667 2.16675H19.3333C18.4493 2.16675 17.6014 2.51794 16.9763 3.14306C16.3512 3.76818 16 4.61603 16 5.50008V47.7234" stroke="#71A341" stroke-width="4" stroke-linecap="round" stroke-linejoin="round"/>
<path d="M43.221 14.5L31.1961 30.3206C31.0939 30.4378 31.0284 30.5806 31.0074 30.7324C30.9863 30.8841 31.0106 31.0385 31.0773 31.1774C31.144 31.3164 31.2503 31.4341 31.384 31.5169C31.5176 31.5996 31.6729 31.644 31.8317 31.6447H38.7764V44.5L50.8014 28.6837C50.9045 28.5668 50.9708 28.4239 50.9923 28.2718C51.0139 28.1197 50.9898 27.9649 50.9229 27.8256C50.8561 27.6863 50.7492 27.5684 50.6151 27.4858C50.4809 27.4032 50.325 27.3594 50.1658 27.3596H43.221V14.5Z" stroke="#71A341" stroke-width="4" stroke-linecap="round" stroke-linejoin="round"/>
<path d="M79.334 38.8333L59.334 52.1666" stroke="#71A341" stroke-width="4" stroke-linecap="round" stroke-linejoin="round"/>
<path d="M2.66602 38.8333L22.666 52.1666" stroke="#71A341" stroke-width="4" stroke-linecap="round" stroke-linejoin="round"/>
</svg>
