<svg width="30" height="30" viewBox="0 0 30 30" fill="none" xmlns="http://www.w3.org/2000/svg">
<g clip-path="url(#clip0_630_20734)">
<path d="M13.2029 14.1011C16.6764 14.1011 19.4922 11.2853 19.4922 7.8118C19.4922 4.3383 16.6764 1.52246 13.2029 1.52246C9.72941 1.52246 6.91357 4.3383 6.91357 7.8118C6.91357 11.2853 9.72941 14.1011 13.2029 14.1011Z" stroke="#71A341" stroke-width="1.24875" stroke-linecap="round" stroke-linejoin="round"/>
<path d="M1.52295 28.4771C1.52295 25.3792 2.75354 22.4084 4.944 20.2179C7.13446 18.0274 10.1054 16.7969 13.2031 16.7969C15.4977 16.7969 17.7227 17.472 19.6124 18.7124" stroke="#71A341" stroke-width="1.24875" stroke-linecap="round" stroke-linejoin="round"/>
<path d="M8.71094 17.6953V18.5938C8.71094 19.7853 9.18424 20.9279 10.0267 21.7704C10.8692 22.6129 12.0119 23.0862 13.2033 23.0862C14.3948 23.0862 15.5374 22.6129 16.38 21.7704C17.2224 20.9279 17.6957 19.7853 17.6957 18.5938V17.6953" stroke="#71A341" stroke-width="1.24875" stroke-linecap="round" stroke-linejoin="round"/>
<path d="M6.01514 19.2646V28.477" stroke="#71A341" stroke-width="1.24875" stroke-linecap="round" stroke-linejoin="round"/>
<path d="M11.1064 8.41174V1.88281" stroke="#71A341" stroke-width="1.24875" stroke-linecap="round" stroke-linejoin="round"/>
<path d="M15.2998 8.41174V1.88281" stroke="#71A341" stroke-width="1.24875" stroke-linecap="round" stroke-linejoin="round"/>
<path d="M5.1167 8.41113H19.4455" stroke="#71A341" stroke-width="1.24875" stroke-linecap="round" stroke-linejoin="round"/>
<path d="M21.2891 12.2877C21.2905 12.9161 21.4573 13.5329 21.7727 14.0763C22.0881 14.6198 22.5411 15.0705 23.086 15.3833V21.7708C22.4009 22.1664 21.8654 22.777 21.5627 23.5079C21.2598 24.2389 21.2068 25.0493 21.4115 25.8135C21.6164 26.5777 22.0675 27.2529 22.6951 27.7346C23.3229 28.2162 24.0918 28.4772 24.883 28.4772C25.6741 28.4772 26.4432 28.2162 27.0708 27.7346C27.6985 27.2529 28.1497 26.5777 28.3545 25.8135C28.5592 25.0493 28.5061 24.2389 28.2033 23.5079C27.9005 22.777 27.3651 22.1664 26.6799 21.7708V15.3833C27.2243 15.0669 27.6758 14.6129 27.9892 14.0667C28.3025 13.5205 28.4666 12.9016 28.4649 12.2719C28.4632 11.6422 28.2959 11.0241 27.9797 10.4796C27.6636 9.9351 27.2097 9.48338 26.6636 9.16985C26.1176 8.8563 25.4987 8.69198 24.8691 8.69337C24.2394 8.69477 23.6212 8.86183 23.0766 9.17778C22.532 9.49373 22.0801 9.94745 21.7663 10.4934C21.4525 11.0392 21.288 11.6581 21.2891 12.2877Z" stroke="#71A341" stroke-width="1.24875" stroke-linecap="round" stroke-linejoin="round"/>
<path d="M24.8833 28.4601V24.8662" stroke="#71A341" stroke-width="1.24875" stroke-linecap="round" stroke-linejoin="round"/>
<path d="M24.8833 12.2873V8.69336" stroke="#71A341" stroke-width="1.24875" stroke-linecap="round" stroke-linejoin="round"/>
</g>
<defs>
<clipPath id="clip0_630_20734">
<rect width="30" height="30" fill="white"/>
</clipPath>
</defs>
</svg>
