<svg width="38" height="56" viewBox="0 0 38 56" fill="none" xmlns="http://www.w3.org/2000/svg">
<path d="M18.9998 1.61279C23.6459 1.61347 28.1015 3.45962 31.3866 6.74517C34.6717 10.0307 36.5172 14.4866 36.5172 19.1327C36.5172 27.3484 23.8883 47.7151 20.0756 53.6743C19.96 53.8547 19.8009 54.0032 19.6129 54.106C19.4249 54.2088 19.2141 54.2627 18.9998 54.2627C18.7855 54.2627 18.5747 54.2088 18.3867 54.106C18.1987 54.0032 18.0396 53.8547 17.924 53.6743C14.1113 47.7151 1.48242 27.3535 1.48242 19.1327C1.48209 16.8321 1.93494 14.5539 2.81512 12.4283C3.6953 10.3027 4.98557 8.37133 6.61224 6.74442C8.23891 5.11751 10.1701 3.82696 12.2956 2.94647C14.4211 2.06598 16.6992 1.61279 18.9998 1.61279Z" fill="#71A341"/>
<path opacity="0.25" d="M18.9998 54.2544C18.7854 54.2542 18.5744 54.2 18.3864 54.0968C18.1984 53.9937 18.0393 53.8448 17.924 53.6641C14.1113 47.7048 1.48242 27.3433 1.48242 19.1225C1.48445 14.4779 3.33093 10.0243 6.61585 6.7408C9.90078 3.45732 14.3552 1.61279 18.9998 1.61279V54.2544Z" fill="white"/>
<path d="M18.9996 27.167C20.1742 27.167 21.3372 26.9356 22.4223 26.4862C23.5075 26.0367 24.4934 25.3779 25.324 24.5473C26.1545 23.7168 26.8133 22.7308 27.2628 21.6457C27.7122 20.5606 27.9436 19.3975 27.9436 18.223C27.9436 17.0485 27.7122 15.8854 27.2628 14.8003C26.8133 13.7152 26.1545 12.7292 25.324 11.8987C24.4934 11.0682 23.5075 10.4093 22.4223 9.95987C21.3372 9.5104 20.1742 9.27905 18.9996 9.27905C16.6275 9.27905 14.3526 10.2214 12.6753 11.8987C10.998 13.576 10.0557 15.8509 10.0557 18.223C10.0557 20.5951 10.998 22.87 12.6753 24.5473C14.3526 26.2247 16.6275 27.167 18.9996 27.167Z" fill="#E4EBEF"/>
<path d="M18.9996 27.167C17.8251 27.167 16.6621 26.9356 15.5769 26.4862C14.4918 26.0367 13.5058 25.3779 12.6753 24.5473C11.8448 23.7168 11.186 22.7308 10.7365 21.6457C10.287 20.5606 10.0557 19.3975 10.0557 18.223C10.0557 17.0485 10.287 15.8854 10.7365 14.8003C11.186 13.7152 11.8448 12.7292 12.6753 11.8987C13.5058 11.0682 14.4918 10.4093 15.5769 9.95987C16.6621 9.5104 17.8251 9.27905 18.9996 9.27905V27.167Z" fill="white"/>
</svg>
