<svg width="32" height="30" viewBox="0 0 32 30" fill="none" xmlns="http://www.w3.org/2000/svg">
<path d="M18.2341 19.6577H18.5004C18.5004 19.6577 22.8166 19.6664 22.8754 19.6577L25.6004 19.1577C25.8882 19.105 26.1484 18.9531 26.3356 18.7283C26.5229 18.5036 26.6255 18.2203 26.6254 17.9277V11.1352C26.6254 10.8839 26.5496 10.6385 26.408 10.4309C26.2664 10.2233 26.0656 10.0632 25.8316 9.97144L19.5254 7.50019C19.2145 7.3786 18.8769 7.34218 18.5473 7.3947C18.2176 7.44721 17.908 7.58677 17.6504 7.79894L13.0691 11.5677C12.8953 11.71 12.7769 11.9086 12.7343 12.1291C12.6916 12.3496 12.7276 12.5781 12.8359 12.7748C12.9441 12.9716 13.1179 13.1243 13.3269 13.2063C13.536 13.2883 13.7672 13.2946 13.9804 13.2239L19.1254 11.5327" stroke="#71A341" stroke-width="1.5" stroke-linecap="round" stroke-linejoin="round"/>
<path d="M5.375 17.1576L8.625 17.7826L13.1062 22.2639C13.2477 22.4055 13.4211 22.5112 13.6119 22.5718C13.8026 22.6325 14.0052 22.6465 14.2025 22.6126L14.8275 22.5039C15.0821 22.4601 15.3168 22.3385 15.4995 22.1558C15.6821 21.9732 15.8037 21.7384 15.8475 21.4839L16.065 20.2176L18.2012 19.8489L18.57 17.7139L20.7062 17.3451L21.0737 15.2089L17.8238 11.9589" stroke="#71A341" stroke-width="1.5" stroke-linecap="round" stroke-linejoin="round"/>
<path d="M15.4625 9.59759L13.6137 7.75009C13.439 7.57472 13.2161 7.45519 12.9733 7.40668C12.7305 7.35816 12.4787 7.38285 12.25 7.47759L8.5 9.03259L5.375 9.65759" stroke="#71A341" stroke-width="1.5" stroke-linecap="round" stroke-linejoin="round"/>
<path d="M1.625 7.78271H4.125C4.45652 7.78271 4.77446 7.91441 5.00888 8.14883C5.2433 8.38325 5.375 8.70119 5.375 9.03271V17.7827C5.375 18.1142 5.2433 18.4322 5.00888 18.6666C4.77446 18.901 4.45652 19.0327 4.125 19.0327H1.625V7.78271Z" stroke="#71A341" stroke-width="1.5" stroke-linecap="round" stroke-linejoin="round"/>
<path d="M27.875 9.03259H30.375V20.2826H27.875C27.5435 20.2826 27.2255 20.1509 26.9911 19.9165C26.7567 19.6821 26.625 19.3641 26.625 19.0326V10.2826C26.625 9.95107 26.7567 9.63313 26.9911 9.39871C27.2255 9.16429 27.5435 9.03259 27.875 9.03259Z" stroke="#71A341" stroke-width="1.5" stroke-linecap="round" stroke-linejoin="round"/>
</svg>
