<svg width="24" height="24" viewBox="0 0 24 24" fill="none" xmlns="http://www.w3.org/2000/svg">
<path d="M2 17.5002C2 18.5611 2.42143 19.5785 3.17157 20.3287C3.92172 21.0788 4.93913 21.5002 6 21.5002C7.06087 21.5002 8.07828 21.0788 8.82843 20.3287C9.57857 19.5785 10 18.5611 10 17.5002C10 16.4394 9.57857 15.422 8.82843 14.6718C8.07828 13.9217 7.06087 13.5002 6 13.5002C4.93913 13.5002 3.92172 13.9217 3.17157 14.6718C2.42143 15.422 2 16.4394 2 17.5002Z" fill="#71A341" stroke="#71A341" stroke-width="2.5" stroke-linejoin="round"/>
<path d="M14 17.5002C14 18.5611 14.4214 19.5785 15.1716 20.3287C15.9217 21.0788 16.9391 21.5002 18 21.5002C19.0609 21.5002 20.0783 21.0788 20.8284 20.3287C21.5786 19.5785 22 18.5611 22 17.5002C22 16.4394 21.5786 15.422 20.8284 14.6718C20.0783 13.9217 19.0609 13.5002 18 13.5002C16.9391 13.5002 15.9217 13.9217 15.1716 14.6718C14.4214 15.422 14 16.4394 14 17.5002Z" fill="#71A341" stroke="#71A341" stroke-width="2.5" stroke-linejoin="round"/>
<path d="M2 17.5002V8.50024C2 6.90895 2.63214 5.38282 3.75736 4.2576C4.88258 3.13239 6.4087 2.50024 8 2.50024M14 17.5002V8.50024C14 6.90895 14.6321 5.38282 15.7574 4.2576C16.8826 3.13239 18.4087 2.50024 20 2.50024" stroke="#71A341" stroke-width="2.5" stroke-linejoin="round"/>
</svg>
