<svg width="24" height="24" viewBox="0 0 24 24" fill="none" xmlns="http://www.w3.org/2000/svg">
<path d="M22 6.50024C22 5.43938 21.5786 4.42196 20.8284 3.67182C20.0783 2.92167 19.0609 2.50024 18 2.50024C16.9391 2.50024 15.9217 2.92167 15.1716 3.67182C14.4214 4.42196 14 5.43938 14 6.50024C14 7.56111 14.4214 8.57853 15.1716 9.32867C15.9217 10.0788 16.9391 10.5002 18 10.5002C19.0609 10.5002 20.0783 10.0788 20.8284 9.32867C21.5786 8.57853 22 7.56111 22 6.50024Z" fill="#71A341" stroke="#71A341" stroke-width="2.5" stroke-linejoin="round"/>
<path d="M10 6.50024C10 5.43938 9.57857 4.42196 8.82843 3.67182C8.07828 2.92167 7.06087 2.50024 6 2.50024C4.93913 2.50024 3.92172 2.92167 3.17157 3.67182C2.42143 4.42196 2 5.43938 2 6.50024C2 7.56111 2.42143 8.57853 3.17157 9.32867C3.92172 10.0788 4.93913 10.5002 6 10.5002C7.06087 10.5002 8.07828 10.0788 8.82843 9.32867C9.57857 8.57853 10 7.56111 10 6.50024Z" fill="#71A341" stroke="#71A341" stroke-width="2.5" stroke-linejoin="round"/>
<path d="M22 6.50024V15.5002C22 17.0915 21.3679 18.6177 20.2426 19.7429C19.1174 20.8681 17.5913 21.5002 16 21.5002M10 6.50024V15.5002C10 17.0915 9.36786 18.6177 8.24264 19.7429C7.11742 20.8681 5.5913 21.5002 4 21.5002" stroke="#71A341" stroke-width="2.5" stroke-linejoin="round"/>
</svg>
