<svg width="30" height="32" viewBox="0 0 30 32" fill="none" xmlns="http://www.w3.org/2000/svg">
<path d="M12.0938 1.625V2.875" stroke="#FFBF0D" stroke-width="1.5" stroke-linecap="round" stroke-linejoin="round"/>
<path d="M3.34253 4.12744L4.59253 5.37744" stroke="#FFBF0D" stroke-width="1.5" stroke-linecap="round" stroke-linejoin="round"/>
<path d="M20.8437 4.125L19.5938 5.375" stroke="#FFBF0D" stroke-width="1.5" stroke-linecap="round" stroke-linejoin="round"/>
<path d="M0.84375 12.875H2.09375" stroke="#FFBF0D" stroke-width="1.5" stroke-linecap="round" stroke-linejoin="round"/>
<path d="M17.7013 7.90373C16.6916 6.767 15.3604 5.96396 13.8839 5.60106C12.4075 5.23816 10.8557 5.33255 9.4341 5.8717C8.01254 6.41085 6.78841 7.36931 5.92398 8.62001C5.05955 9.87072 4.59564 11.3546 4.59375 12.875C4.59293 13.709 4.73411 14.5371 5.01125 15.3237" stroke="#FFBF0D" stroke-width="1.5" stroke-linecap="round" stroke-linejoin="round"/>
<path d="M9.41503 13.1963C9.46918 13.0989 9.54837 13.0177 9.64442 12.9613C9.74046 12.9048 9.84986 12.875 9.96128 12.875H22.9763C23.0877 12.875 23.1971 12.9048 23.2931 12.9613C23.3892 13.0177 23.4684 13.0989 23.5225 13.1963L29.0775 23.1962C29.1304 23.2914 29.1576 23.3987 29.1563 23.5075C29.1549 23.6164 29.1252 23.723 29.07 23.8169C29.0148 23.9107 28.9361 23.9885 28.8416 24.0425C28.7471 24.0966 28.6401 24.125 28.5313 24.125H4.40628C4.29742 24.125 4.19044 24.0966 4.09595 24.0425C4.00145 23.9885 3.92271 23.9107 3.86752 23.8169C3.81233 23.723 3.78261 23.6164 3.7813 23.5075C3.77998 23.3987 3.80712 23.2914 3.86003 23.1962L9.41503 13.1963Z" stroke="#FFBF0D" stroke-width="1.5" stroke-linecap="round" stroke-linejoin="round"/>
<path d="M14.5938 24.125V30.375" stroke="#FFBF0D" stroke-width="1.5" stroke-linecap="round" stroke-linejoin="round"/>
<path d="M18.3438 30.375V24.125" stroke="#FFBF0D" stroke-width="1.5" stroke-linecap="round" stroke-linejoin="round"/>
<path d="M13.9687 12.875L11.4688 24.125" stroke="#FFBF0D" stroke-width="1.5" stroke-linecap="round" stroke-linejoin="round"/>
<path d="M18.9688 12.875L21.4688 24.125" stroke="#FFBF0D" stroke-width="1.5" stroke-linecap="round" stroke-linejoin="round"/>
<path d="M7.51001 16.625H25.4263" stroke="#FFBF0D" stroke-width="1.5" stroke-linecap="round" stroke-linejoin="round"/>
<path d="M5.42627 20.375H27.51" stroke="#FFBF0D" stroke-width="1.5" stroke-linecap="round" stroke-linejoin="round"/>
</svg>
