<svg width="30" height="32" viewBox="0 0 30 32" fill="none" xmlns="http://www.w3.org/2000/svg">
<path d="M14.738 14.1252L12.9755 2.33774C12.9604 2.24942 12.965 2.15887 12.9887 2.07247C13.0125 1.98608 13.0549 1.90596 13.113 1.83774C13.1733 1.77152 13.2466 1.71845 13.3283 1.68189C13.41 1.64532 13.4985 1.62604 13.588 1.62524H22.238" stroke="#71A341" stroke-width="1.5" stroke-linecap="round" stroke-linejoin="round"/>
<path d="M17.8627 16.6253L16.6877 4.81277C16.6778 4.72556 16.686 4.63725 16.7118 4.55336C16.7376 4.46948 16.7805 4.39182 16.8377 4.32527C16.8976 4.26283 16.9693 4.21297 17.0487 4.17863C17.1282 4.14428 17.2136 4.12614 17.3002 4.12527H27.1377C27.2275 4.12449 27.3164 4.14306 27.3983 4.17973C27.4803 4.2164 27.5534 4.2703 27.6127 4.33777C27.6708 4.40598 27.7132 4.48611 27.7369 4.5725C27.7607 4.65889 27.7652 4.74944 27.7502 4.83777L25.9877 16.6253" stroke="#71A341" stroke-width="1.5" stroke-linecap="round" stroke-linejoin="round"/>
<path d="M25.3625 29.1252H14.8375C14.3586 29.1252 13.8839 29.2142 13.4375 29.3877L10.9375 30.3752" stroke="#71A341" stroke-width="1.5" stroke-linecap="round" stroke-linejoin="round"/>
<path d="M14.7383 16.6252H26.6133L27.4008 17.8127C27.5352 18.0168 27.6068 18.2559 27.6068 18.5002C27.6068 18.7446 27.5352 18.9836 27.4008 19.1877L27.0133 19.7752C26.892 19.9586 26.8211 20.1707 26.808 20.3902C26.7948 20.6096 26.8397 20.8287 26.9383 21.0252L27.5883 22.2752C27.6762 22.4497 27.722 22.6424 27.722 22.8377C27.722 23.0331 27.6762 23.2258 27.5883 23.4002L26.8508 24.8752C26.7013 25.1696 26.6744 25.5111 26.7758 25.8252L26.9883 26.4752C27.0562 26.6912 27.0641 26.9216 27.0113 27.1418C26.9584 27.3619 26.8468 27.5636 26.6883 27.7252L25.3633 29.1252" stroke="#71A341" stroke-width="1.5" stroke-linecap="round" stroke-linejoin="round"/>
<path d="M2.23828 22.8752L6.43828 21.3002C6.95372 21.1008 7.39177 20.7416 7.68828 20.2752L11.8133 13.5752C12.0938 13.1138 12.4739 12.7209 12.9258 12.4252L14.3383 11.4752" stroke="#71A341" stroke-width="1.5" stroke-linecap="round" stroke-linejoin="round"/>
<path d="M20.6641 10.6877C20.6641 11.1021 20.8287 11.4996 21.1217 11.7926C21.4147 12.0856 21.8122 12.2502 22.2266 12.2502C22.641 12.2502 23.0384 12.0856 23.3314 11.7926C23.6244 11.4996 23.7891 11.1021 23.7891 10.6877C23.7891 10.2733 23.6244 9.87592 23.3314 9.58289C23.0384 9.28986 22.641 9.12524 22.2266 9.12524C21.8122 9.12524 21.4147 9.28986 21.1217 9.58289C20.8287 9.87592 20.6641 10.2733 20.6641 10.6877Z" stroke="#71A341" stroke-width="1.5" stroke-linecap="round" stroke-linejoin="round"/>
</svg>
