<svg width="30" height="30" viewBox="0 0 30 30" fill="none" xmlns="http://www.w3.org/2000/svg">
<g clip-path="url(#clip0_630_20731)">
<path d="M7.21311 6.01562H22.7867C22.7867 6.01562 23.9847 6.01562 23.9847 7.21359V22.7872C23.9847 22.7872 23.9847 23.9852 22.7867 23.9852H7.21311C7.21311 23.9852 6.01514 23.9852 6.01514 22.7872V7.21359C6.01514 7.21359 6.01514 6.01562 7.21311 6.01562Z" stroke="#71A341" stroke-width="1.24875" stroke-linecap="round" stroke-linejoin="round"/>
<path d="M15 1.22363V6.01551" stroke="#71A341" stroke-width="1.24875" stroke-linecap="round" stroke-linejoin="round"/>
<path d="M9.60938 1.22363V6.01551" stroke="#71A341" stroke-width="1.24875" stroke-linecap="round" stroke-linejoin="round"/>
<path d="M20.3906 1.22363V6.01551" stroke="#71A341" stroke-width="1.24875" stroke-linecap="round" stroke-linejoin="round"/>
<path d="M1.22314 15H6.01502" stroke="#71A341" stroke-width="1.24875" stroke-linecap="round" stroke-linejoin="round"/>
<path d="M1.22314 20.3906H6.01502" stroke="#71A341" stroke-width="1.24875" stroke-linecap="round" stroke-linejoin="round"/>
<path d="M1.22314 9.60938H6.01502" stroke="#71A341" stroke-width="1.24875" stroke-linecap="round" stroke-linejoin="round"/>
<path d="M15 28.7762V23.9844" stroke="#71A341" stroke-width="1.24875" stroke-linecap="round" stroke-linejoin="round"/>
<path d="M20.3906 28.7762V23.9844" stroke="#71A341" stroke-width="1.24875" stroke-linecap="round" stroke-linejoin="round"/>
<path d="M9.60938 28.7762V23.9844" stroke="#71A341" stroke-width="1.24875" stroke-linecap="round" stroke-linejoin="round"/>
<path d="M28.7767 15H23.9849" stroke="#71A341" stroke-width="1.24875" stroke-linecap="round" stroke-linejoin="round"/>
<path d="M28.7767 9.60938H23.9849" stroke="#71A341" stroke-width="1.24875" stroke-linecap="round" stroke-linejoin="round"/>
<path d="M28.7767 20.3906H23.9849" stroke="#71A341" stroke-width="1.24875" stroke-linecap="round" stroke-linejoin="round"/>
<path d="M10.8071 8.41113H19.1929C19.1929 8.41113 21.5888 8.41113 21.5888 10.8071V19.1929C21.5888 19.1929 21.5888 21.5888 19.1929 21.5888H10.8071C10.8071 21.5888 8.41113 21.5888 8.41113 19.1929V10.8071C8.41113 10.8071 8.41113 8.41113 10.8071 8.41113Z" stroke="#71A341" stroke-width="1.24875" stroke-linecap="round" stroke-linejoin="round"/>
<path d="M12.0049 12.0049H16.7968" stroke="#71A341" stroke-width="1.24875" stroke-linecap="round" stroke-linejoin="round"/>
<path d="M12.0049 14.4004H14.4008" stroke="#71A341" stroke-width="1.24875" stroke-linecap="round" stroke-linejoin="round"/>
<path d="M15.5991 17.9951H17.9951" stroke="#71A341" stroke-width="1.24875" stroke-linecap="round" stroke-linejoin="round"/>
</g>
<defs>
<clipPath id="clip0_630_20731">
<rect width="30" height="30" fill="white"/>
</clipPath>
</defs>
</svg>
