<svg width="31" height="30" viewBox="0 0 31 30" fill="none" xmlns="http://www.w3.org/2000/svg">
<path d="M9.80914 18.5939C12.621 18.5939 14.9005 16.3144 14.9005 13.5025C14.9005 10.6906 12.621 8.41113 9.80914 8.41113C6.99726 8.41113 4.71777 10.6906 4.71777 13.5025C4.71777 16.3144 6.99726 18.5939 9.80914 18.5939Z" stroke="#EEF4F9" stroke-width="1.24875" stroke-linecap="round" stroke-linejoin="round"/>
<path d="M1.42383 28.7767C1.42383 26.5526 2.30733 24.4196 3.87996 22.8471C5.45261 21.2744 7.58556 20.3909 9.80961 20.3909C12.0337 20.3909 14.1666 21.2744 15.7392 22.8471C17.3119 24.4196 18.1954 26.5526 18.1954 28.7767H1.42383Z" stroke="#EEF4F9" stroke-width="1.24875" stroke-linecap="round" stroke-linejoin="round"/>
<path d="M16.9941 12.0051H19.3936V16.797L24.7845 12.0051H28.9773V1.22339H11.0078V6.01526" stroke="#EEF4F9" stroke-width="1.24875" stroke-linecap="round" stroke-linejoin="round"/>
<path d="M15.7995 6.91368C15.6341 6.91368 15.5 6.77959 15.5 6.61419C15.5 6.44879 15.6341 6.3147 15.7995 6.3147" stroke="#EEF4F9" stroke-width="1.24875"/>
<path d="M15.7988 6.91368C15.9643 6.91368 16.0983 6.77959 16.0983 6.61419C16.0983 6.44879 15.9643 6.3147 15.7988 6.3147" stroke="#EEF4F9" stroke-width="1.24875"/>
<path d="M19.9919 6.91368C19.8264 6.91368 19.6924 6.77959 19.6924 6.61419C19.6924 6.44879 19.8264 6.3147 19.9919 6.3147" stroke="#EEF4F9" stroke-width="1.24875"/>
<path d="M19.9922 6.91368C20.1576 6.91368 20.2917 6.77959 20.2917 6.61419C20.2917 6.44879 20.1576 6.3147 19.9922 6.3147" stroke="#EEF4F9" stroke-width="1.24875"/>
<path d="M24.1852 6.91368C24.0198 6.91368 23.8857 6.77959 23.8857 6.61419C23.8857 6.44879 24.0198 6.3147 24.1852 6.3147" stroke="#EEF4F9" stroke-width="1.24875"/>
<path d="M24.1855 6.91368C24.351 6.91368 24.485 6.77959 24.485 6.61419C24.485 6.44879 24.351 6.3147 24.1855 6.3147" stroke="#EEF4F9" stroke-width="1.24875"/>
</svg>
